<?xml version="1.0" encoding="utf-8"?>
<!-- Generator: Adobe Illustrator 26.0.0, SVG Export Plug-In . SVG Version: 6.00 Build 0)  -->
<svg version="1.1" id="Layer_1" xmlns="http://www.w3.org/2000/svg" xmlns:xlink="http://www.w3.org/1999/xlink" x="0px" y="0px"
	 viewBox="0 0 1113.91 324.12" style="enable-background:new 0 0 1113.91 324.12;" xml:space="preserve">
<style type="text/css">
	.st0{fill:#515151;}
	.st1{fill:#228B22;}
	.st2{fill-rule:evenodd;clip-rule:evenodd;fill:#228B22;}
	.st3{fill:#FFFFFF;}
	.st4{fill-rule:evenodd;clip-rule:evenodd;fill:#FFFFFF;}
	.st5{fill:#50C878;}
	.st6{fill-rule:evenodd;clip-rule:evenodd;fill:#50C878;}
	.st7{fill:#003366;}
</style>
<g>
	<path class="st0" d="M311.7,265.2h-2.12v-31.51c-1.64,2.83-2.88,4.94-3.73,6.33c-0.85,1.4-1.52,2.46-1.99,3.2
		c-0.47,0.74-0.96,1.52-1.46,2.35c-0.5,0.83-1.19,2.05-2.08,3.66c-0.89,1.61-2.16,3.94-3.81,7h-1.06
		c-2.86-4.93-4.86-8.47-5.99-10.62c-0.34-0.67-0.73-1.38-1.16-2.12c-0.83-1.48-2.81-4.74-5.94-9.78v31.49h-2.12v-35.82h2.04
		l13.69,23.58l13.69-23.58h2.04V265.2z"/>
	<path class="st0" d="M331.49,265.07c-1.43,0-2.83-0.23-4.2-0.68s-2.66-1.13-3.86-2.03c-2.88-2.27-4.53-5.08-4.96-8.43
		c-0.07-0.49-0.1-0.99-0.1-1.5c0-1.38,0.23-2.73,0.7-4.05c0.46-1.32,1.17-2.57,2.12-3.73c2.38-2.78,5.3-4.37,8.76-4.78
		c0.5-0.05,1.02-0.07,1.55-0.07c1.43,0,2.84,0.22,4.22,0.67c1.39,0.44,2.68,1.12,3.89,2.02l1.16,0.91l-14.15,18.5
		c1.5,0.76,3.13,1.13,4.91,1.13c0.43,0,0.87-0.02,1.32-0.07c2.91-0.34,5.36-1.68,7.34-3.99l0.65-0.81l1.68,1.26
		c-2.5,3.28-5.63,5.14-9.4,5.57C332.57,265.04,332.04,265.07,331.49,265.07z M324.8,260.83l13.04-17.07
		c-0.86-0.61-1.85-1.08-2.96-1.42c-1.11-0.34-2.23-0.5-3.37-0.5c-0.43,0-0.88,0.02-1.34,0.07c-2.89,0.33-5.33,1.65-7.31,3.97
		c-0.79,0.99-1.38,2.04-1.77,3.17c-0.39,1.12-0.58,2.26-0.58,3.41c0,0.41,0.03,0.83,0.08,1.26c0.34,2.79,1.72,5.14,4.13,7.05
		L324.8,260.83z"/>
	<path class="st0" d="M358.33,265.32c-2.43,0-4.63-0.57-6.61-1.71c-1.98-1.14-3.56-2.67-4.74-4.58c-1.18-1.91-1.77-4.03-1.77-6.34
		c0-2.33,0.59-4.46,1.77-6.37c1.18-1.91,2.76-3.44,4.74-4.57c1.98-1.13,4.18-1.7,6.61-1.7c2.5,0,4.76,0.6,6.78,1.8
		c2.02,1.2,3.44,2.51,4.25,3.94v-15.55h2.12v34.96h-2.12v-5.62c-0.81,1.41-2.23,2.72-4.25,3.93
		C363.08,264.72,360.82,265.32,358.33,265.32z M358.33,263.27c2.01,0,3.85-0.48,5.51-1.43c1.66-0.95,2.99-2.23,3.98-3.84
		c0.99-1.61,1.49-3.38,1.49-5.32c0-1.95-0.49-3.74-1.47-5.35c-0.98-1.61-2.31-2.89-3.98-3.83c-1.67-0.94-3.51-1.42-5.53-1.42
		c-2.03,0-3.88,0.47-5.54,1.42c-1.66,0.94-2.99,2.22-3.98,3.83c-0.99,1.61-1.49,3.39-1.49,5.35c0,1.94,0.49,3.71,1.49,5.32
		c0.99,1.61,2.32,2.89,3.98,3.84C354.45,262.8,356.29,263.27,358.33,263.27z"/>
	<path class="st0" d="M382.17,238.88c-0.43,0-0.81-0.15-1.12-0.46c-0.32-0.3-0.48-0.67-0.48-1.1c0-0.41,0.15-0.77,0.46-1.08
		s0.69-0.47,1.14-0.47c0.43,0,0.81,0.15,1.14,0.44c0.33,0.3,0.49,0.67,0.49,1.11c0,0.41-0.16,0.77-0.48,1.08
		C383,238.73,382.62,238.88,382.17,238.88z M383.23,265.2h-2.12v-23.92h2.12V265.2z"/>
	<path class="st0" d="M402.06,265.07c-1.41,0-2.81-0.23-4.18-0.68c-1.38-0.45-2.67-1.13-3.87-2.03c-2.86-2.27-4.5-5.08-4.93-8.43
		c-0.07-0.49-0.1-1-0.1-1.53c0-1.36,0.23-2.71,0.68-4.04c0.46-1.33,1.16-2.57,2.1-3.72c2.38-2.78,5.3-4.37,8.76-4.78
		c0.53-0.05,1.05-0.07,1.55-0.07c1.43,0,2.84,0.22,4.22,0.67c1.39,0.44,2.68,1.12,3.89,2.02l0.85,0.62l-1.32,1.63l-0.83-0.64
		c-1.02-0.75-2.1-1.32-3.25-1.69s-2.32-0.55-3.49-0.55c-0.45,0-0.9,0.02-1.37,0.07c-2.91,0.33-5.36,1.65-7.34,3.97
		c-0.77,0.99-1.36,2.03-1.74,3.14c-0.39,1.11-0.58,2.23-0.58,3.36c0,0.44,0.03,0.89,0.08,1.33c0.34,2.79,1.71,5.14,4.11,7.05
		c1.03,0.77,2.14,1.34,3.31,1.71c1.17,0.37,2.35,0.55,3.54,0.55c0.41,0,0.84-0.02,1.29-0.07c2.89-0.34,5.33-1.68,7.31-3.99
		l0.65-0.81l1.68,1.26l-0.65,0.81c-2.36,2.76-5.28,4.34-8.76,4.75C403.14,265.04,402.61,265.07,402.06,265.07z"/>
	<path class="st0" d="M428.89,265.32c-2.41,0-4.61-0.57-6.6-1.71c-1.99-1.14-3.57-2.67-4.75-4.58c-1.18-1.91-1.77-4.03-1.77-6.34
		s0.59-4.43,1.77-6.34c1.18-1.91,2.76-3.44,4.75-4.58c1.99-1.14,4.19-1.71,6.6-1.71c1.67,0,3.24,0.27,4.7,0.8
		c1.46,0.53,2.74,1.23,3.82,2.09s1.92,1.8,2.51,2.82v-4.48h2.12v23.92h-2.12v-5.62c-0.59,1.02-1.42,1.96-2.51,2.82
		s-2.36,1.56-3.82,2.11C432.13,265.05,430.56,265.32,428.89,265.32z M428.89,263.27c2.03,0,3.88-0.48,5.54-1.43
		c1.66-0.95,2.98-2.23,3.96-3.83c0.98-1.6,1.47-3.38,1.47-5.33c0-1.95-0.49-3.73-1.47-5.33c-0.98-1.6-2.3-2.88-3.96-3.83
		c-1.66-0.95-3.51-1.43-5.54-1.43c-2.05,0-3.9,0.47-5.57,1.42c-1.66,0.94-2.98,2.22-3.96,3.82c-0.98,1.6-1.47,3.39-1.47,5.36
		c0,1.97,0.49,3.76,1.49,5.36c0.99,1.6,2.32,2.87,3.98,3.82C425.02,262.8,426.86,263.27,428.89,263.27z"/>
	<path class="st0" d="M454.65,265.2h-2.14v-34.96h2.14V265.2z"/>
	<path class="st0" d="M496.67,265.2h-20.3l-1.03-0.02V229.4l1.03-0.02h20.56v2.04h-19.5v13.97h19.35v2.02h-19.35v15.74h19.24V265.2z
		"/>
	<path class="st0" d="M526.02,273.97h-2.14V259.5c-0.81,1.45-2.23,2.78-4.26,3.99c-2.03,1.22-4.3,1.82-6.79,1.82
		c-2.43,0-4.63-0.57-6.61-1.71c-1.98-1.14-3.56-2.67-4.74-4.58c-1.18-1.91-1.77-4.03-1.77-6.34c0-2.33,0.59-4.46,1.77-6.37
		c1.18-1.91,2.76-3.44,4.74-4.57c1.98-1.13,4.18-1.7,6.61-1.7c2.5,0,4.76,0.6,6.79,1.81c2.03,1.21,3.45,2.53,4.26,3.98v-4.56h2.14
		V273.97z M512.82,263.27c2.01,0,3.86-0.48,5.53-1.43c1.67-0.95,3-2.23,3.99-3.84c0.99-1.61,1.49-3.38,1.49-5.32
		c0-1.95-0.5-3.74-1.49-5.35c-0.99-1.61-2.32-2.89-3.99-3.83c-1.67-0.94-3.51-1.42-5.53-1.42c-2.01,0-3.86,0.47-5.53,1.42
		c-1.67,0.94-3,2.22-3.99,3.83c-0.99,1.61-1.49,3.39-1.49,5.35c0,1.46,0.28,2.83,0.85,4.1c0.57,1.27,1.36,2.4,2.38,3.39
		c1.02,0.97,2.19,1.73,3.51,2.28C509.88,263,511.3,263.27,512.82,263.27z"/>
	<path class="st0" d="M545.41,265.17c-1.46,0-2.88-0.3-4.25-0.9c-1.37-0.6-2.6-1.5-3.68-2.7c-1.88-2.14-2.9-4.79-3.07-7.96v-12.34
		h2.12v11.11l0.03,0.79c0,1.38,0.23,2.68,0.68,3.89c0.46,1.22,1.09,2.28,1.9,3.2c0.84,0.95,1.81,1.67,2.91,2.14
		c1.09,0.48,2.22,0.71,3.37,0.71s2.28-0.24,3.37-0.71c1.09-0.48,2.06-1.19,2.91-2.14c1.7-1.97,2.56-4.34,2.56-7.1l0.03-0.79v-11.11
		h2.12v12.39c-0.17,3.15-1.2,5.79-3.07,7.91c-1.08,1.2-2.31,2.1-3.68,2.7C548.27,264.87,546.86,265.17,545.41,265.17z"/>
	<path class="st0" d="M565.69,238.88c-0.43,0-0.81-0.15-1.12-0.46c-0.32-0.3-0.48-0.67-0.48-1.1c0-0.41,0.15-0.77,0.46-1.08
		s0.69-0.47,1.14-0.47c0.43,0,0.81,0.15,1.14,0.44c0.33,0.3,0.49,0.67,0.49,1.11c0,0.41-0.16,0.77-0.48,1.08
		C566.52,238.73,566.14,238.88,565.69,238.88z M566.75,265.2h-2.12v-23.92h2.12V265.2z"/>
	<path class="st0" d="M579.17,273.97h-2.12v-32.69h2.12v4.56c0.81-1.45,2.23-2.77,4.27-3.98s4.31-1.81,6.81-1.81
		c2.41,0,4.61,0.57,6.59,1.7c1.98,1.13,3.56,2.66,4.74,4.57c1.18,1.91,1.77,4.04,1.77,6.37c0,2.32-0.59,4.43-1.77,6.34
		c-1.18,1.91-2.76,3.44-4.74,4.58c-1.98,1.14-4.18,1.71-6.59,1.71c-2.53,0-4.81-0.61-6.85-1.84s-3.44-2.54-4.24-3.95V273.97z
		 M590.25,263.27c2,0,3.83-0.48,5.5-1.43c1.67-0.95,3-2.23,3.99-3.83c0.99-1.6,1.48-3.38,1.48-5.33c0-1.95-0.49-3.74-1.47-5.35
		c-0.98-1.61-2.31-2.89-3.98-3.83s-3.51-1.42-5.53-1.42c-2.03,0-3.88,0.47-5.55,1.42s-3,2.22-3.98,3.83
		c-0.98,1.61-1.47,3.39-1.47,5.35c0,1.92,0.49,3.69,1.47,5.3c0.98,1.61,2.3,2.9,3.96,3.86
		C586.35,262.79,588.21,263.27,590.25,263.27z"/>
	<path class="st0" d="M651.34,265.2h-2.12v-12.52c0-2.97-0.87-5.5-2.61-7.59c-0.84-1-1.81-1.76-2.89-2.27
		c-1.08-0.51-2.2-0.76-3.36-0.76c-1.15,0-2.28,0.25-3.37,0.76c-1.09,0.51-2.06,1.27-2.91,2.27c-0.81,0.99-1.44,2.13-1.9,3.42
		c-0.46,1.3-0.68,2.69-0.68,4.16v12.52h-2.12l-0.03-12.52c0-1.48-0.23-2.87-0.68-4.16c-0.46-1.3-1.09-2.44-1.9-3.42
		c-0.84-1-1.81-1.76-2.91-2.27c-1.09-0.51-2.21-0.76-3.35-0.76c-1.15,0-2.28,0.25-3.37,0.76c-1.09,0.51-2.06,1.27-2.91,2.27
		c-1.5,1.81-2.35,4.05-2.56,6.73v13.38h-2.14v-23.92h2.14v3.72c0.09-0.13,0.38-0.52,0.88-1.16c1.08-1.26,2.32-2.21,3.69-2.85
		c1.38-0.63,2.79-0.95,4.24-0.95c1.46,0,2.88,0.32,4.26,0.95c1.38,0.63,2.6,1.58,3.67,2.85c0.95,1.15,1.62,2.26,2.01,3.33
		c0.38-1.07,1.04-2.18,1.99-3.33c1.08-1.26,2.32-2.21,3.69-2.85c1.38-0.63,2.79-0.95,4.24-0.95c1.45,0,2.86,0.32,4.24,0.95
		c1.38,0.63,2.61,1.58,3.69,2.85c1.88,2.25,2.89,5.04,3.05,8.38V265.2z"/>
	<path class="st0" d="M670.53,265.07c-1.43,0-2.83-0.23-4.2-0.68s-2.66-1.13-3.86-2.03c-2.88-2.27-4.53-5.08-4.96-8.43
		c-0.07-0.49-0.1-0.99-0.1-1.5c0-1.38,0.23-2.73,0.7-4.05c0.46-1.32,1.17-2.57,2.12-3.73c2.38-2.78,5.3-4.37,8.76-4.78
		c0.5-0.05,1.02-0.07,1.55-0.07c1.43,0,2.84,0.22,4.22,0.67c1.39,0.44,2.68,1.12,3.89,2.02l1.16,0.91l-14.15,18.5
		c1.5,0.76,3.13,1.13,4.91,1.13c0.43,0,0.87-0.02,1.32-0.07c2.91-0.34,5.36-1.68,7.34-3.99l0.65-0.81l1.68,1.26
		c-2.5,3.28-5.63,5.14-9.4,5.57C671.62,265.04,671.08,265.07,670.53,265.07z M663.84,260.83l13.04-17.07
		c-0.86-0.61-1.85-1.08-2.96-1.42c-1.11-0.34-2.23-0.5-3.37-0.5c-0.43,0-0.88,0.02-1.34,0.07c-2.89,0.33-5.33,1.65-7.31,3.97
		c-0.79,0.99-1.38,2.04-1.77,3.17c-0.39,1.12-0.58,2.26-0.58,3.41c0,0.41,0.03,0.83,0.08,1.26c0.34,2.79,1.72,5.14,4.13,7.05
		L663.84,260.83z"/>
	<path class="st0" d="M707.78,265.2h-2.14v-12.52c0-1.48-0.23-2.87-0.68-4.16c-0.46-1.3-1.09-2.44-1.9-3.42
		c-0.84-1-1.81-1.76-2.91-2.27c-1.09-0.51-2.21-0.76-3.35-0.76c-1.15,0-2.28,0.25-3.37,0.76c-1.09,0.51-2.06,1.27-2.91,2.27
		c-1.5,1.81-2.36,4.05-2.58,6.73v13.38h-2.12v-23.92h2.12v3.77c0.1-0.16,0.4-0.57,0.9-1.21c1.08-1.26,2.32-2.21,3.69-2.85
		c1.38-0.63,2.79-0.95,4.24-0.95c1.45,0,2.86,0.32,4.24,0.95c1.38,0.63,2.61,1.58,3.69,2.85c1.88,2.25,2.9,5.04,3.07,8.38V265.2z"/>
	<path class="st0" d="M716.95,265.2h-2.12c0-3.01,0-5.21,0-6.6s0-2.46,0-3.18c0-0.72-0.01-1.42-0.03-2.09c0-0.74,0-1.88,0-3.42
		s-0.01-3.86-0.03-6.95h-4.24v-2.04h4.24v-5.15h2.12v5.15h4.29v2.04h-4.29L716.95,265.2z"/>
</g>
<g>
	<path class="st1" d="M262.35,157.11c0-18.84-10.64-35.71-27.25-43.45c2.13-4.17,3.25-8.82,3.25-13.56
		c0-13.5-9.16-25.35-21.88-28.44c-8.08-15.71-23.76-25.44-41.08-25.44c-7.54,0-15.04,1.91-21.68,5.52c-0.01,0-0.01,0.01-0.02,0.01
		c-0.01,0.01-0.02,0.01-0.03,0.02c-0.1,0.06-0.18,0.13-0.26,0.2c-0.02,0.02-0.03,0.03-0.04,0.05c-0.07,0.07-0.13,0.15-0.18,0.23
		c-0.02,0.03-0.03,0.05-0.05,0.08c-0.05,0.09-0.09,0.19-0.12,0.29c0,0.01-0.01,0.02-0.01,0.04c-0.03,0.12-0.04,0.24-0.05,0.36
		c0,0.01,0,0.02,0,0.04v203.65c0,0.02,0.01,0.03,0.01,0.04c0,0.14,0.02,0.28,0.06,0.41c0,0.02,0.01,0.03,0.02,0.05
		c0.04,0.12,0.1,0.23,0.17,0.34c0.01,0.02,0.02,0.04,0.04,0.06c0.08,0.11,0.17,0.2,0.28,0.29c0.02,0.02,0.04,0.03,0.07,0.05
		c0.04,0.03,0.08,0.06,0.12,0.08c0.06,0.03,0.12,0.05,0.17,0.07c0.03,0.01,0.05,0.03,0.07,0.04c4.5,1.45,9.19,2.19,13.94,2.19
		c16.16,0,30.88-8.47,39.35-22.37l2.8-1.32c0.27-0.13,0.5-0.34,0.65-0.61l1.14-2.03c11.2-4.06,19.02-15.1,19.02-27.56
		c0-1.33-0.09-2.68-0.28-4.03C249.63,195.89,262.35,177.86,262.35,157.11z M162.24,256.93c-1.93-0.26-3.84-0.65-5.72-1.18
		l23.09-44.55l0.01,0.03c0.09,0.2,0.22,0.37,0.39,0.51l26.13,22.17c-0.3,0.57-0.59,1.14-0.91,1.69l-42.15,19.88
		C162.52,255.74,162.2,256.33,162.24,256.93z M185.63,111.33l-29.79,40.76V58.58L185.63,111.33z M230.61,124.72
		c0.06,0.14,0.14,0.27,0.24,0.39l25.69,29.8l-44.58-7.06l17.55-25.71L230.61,124.72z M228.23,199.16l-31.95-20.09l14.44-27.86
		c0.08-0.16,0.12-0.33,0.15-0.51l47.07,7.45L228.23,199.16z M157.55,154.71l29.66-40.59l20.56,36.41l-13.98,26.97L157.55,154.71z
		 M192.43,180.14l-12.66,24.43L158.82,159L192.43,180.14z M209.08,146.9l-19.97-35.36l22.68-31.02l16.37,38.43L209.08,146.9z
		 M187.53,108.74l-29.31-51.9c0.14,0.13,0.3,0.23,0.48,0.3L209.86,76l0.59,1.38L187.53,108.74z M155.84,159.5l22.23,48.35
		l-22.23,42.87V159.5z M208.35,231.92l-26.24-22.26l-0.8-1.73l13.6-26.23l31.7,19.94l-16.75,29.89
		C209.36,231.68,208.86,231.8,208.35,231.92z M259.32,153.63l-26.14-30.32l-1.72-4.03l2.1-3.07
		C248.29,122.93,258.1,137.27,259.32,153.63z M235.45,100.09c0,4.76-1.25,9.42-3.63,13.48l-1.72,2.52l-16.32-38.31l2.29-3.13
		C227.35,77.53,235.45,88.07,235.45,100.09z M213.77,72.83l-1.32,1.81l-0.18-0.43c-0.16-0.38-0.46-0.67-0.84-0.81l-51.75-19.08
		c-0.75-0.28-1.58,0.12-1.86,0.9c-0.1,0.28-0.11,0.56-0.05,0.83l-1.35-2.39c5.88-2.93,12.41-4.48,18.97-4.48
		C191.55,49.19,206.16,58.23,213.77,72.83z M167.89,257.32c-0.55,0-1.1-0.04-1.64-0.06l35.74-16.85
		C193.82,251.01,181.39,257.32,167.89,257.32z M214.26,229.65l13.64-24.33c0.02,0.37,0.05,0.74,0.05,1.1
		C227.95,216.31,222.47,225.19,214.26,229.65z M232.99,198.25L259.18,162C257.44,177.93,247.33,191.93,232.99,198.25z"/>
	<path class="st1" d="M167.44,55.74c0,4.68-3.69,8.48-8.25,8.48c-4.56,0-8.25-3.79-8.25-8.48c0-4.68,3.69-8.48,8.25-8.48
		C163.74,47.26,167.44,51.06,167.44,55.74z"/>
	<path class="st1" d="M187.33,208.74c0,3.3-2.61,5.98-5.82,5.98c-3.22,0-5.82-2.68-5.82-5.98c0-3.3,2.61-5.98,5.82-5.98
		C184.72,202.76,187.33,205.44,187.33,208.74z"/>
	<path class="st1" d="M215.26,235.26c0,3.3-2.61,5.98-5.82,5.98c-3.22,0-5.82-2.68-5.82-5.98c0-3.3,2.61-5.98,5.82-5.98
		C212.66,229.28,215.26,231.96,215.26,235.26z"/>
	<path class="st1" d="M150.93,255.12c0-4.18,3.3-7.57,7.37-7.57c4.07,0,7.37,3.39,7.37,7.57c0,4.18-3.3,7.57-7.37,7.57
		C154.23,262.69,150.93,259.3,150.93,255.12z"/>
	<ellipse class="st1" cx="257.99" cy="159.08" rx="5.82" ry="5.98"/>
	<path class="st1" d="M191.26,113.52c0,3.3-2.61,5.98-5.82,5.98c-3.22,0-5.82-2.68-5.82-5.98c0-3.3,2.61-5.98,5.82-5.98
		C188.65,107.54,191.26,110.22,191.26,113.52z"/>
	<path class="st1" d="M216.76,74.81c0,3.3-2.61,5.98-5.82,5.98c-3.22,0-5.82-2.68-5.82-5.98c0-3.3,2.61-5.98,5.82-5.98
		C214.16,68.83,216.76,71.51,216.76,74.81z"/>
	<path class="st1" d="M236.01,118.19c0,2.95-2.33,5.34-5.2,5.34c-2.87,0-5.2-2.39-5.2-5.34c0-2.95,2.33-5.34,5.2-5.34
		C233.68,112.85,236.01,115.24,236.01,118.19z"/>
	<path class="st1" d="M216.76,150.51c0,3.3-2.61,5.98-5.82,5.98c-3.22,0-5.82-2.68-5.82-5.98c0-3.3,2.61-5.98,5.82-5.98
		C214.16,144.52,216.76,147.2,216.76,150.51z"/>
	<path class="st1" d="M202.1,178.86c0,3.3-2.61,5.98-5.82,5.98c-3.22,0-5.82-2.68-5.82-5.98c0-3.3,2.61-5.98,5.82-5.98
		C199.49,172.88,202.1,175.55,202.1,178.86z"/>
	<ellipse class="st1" cx="227.95" cy="199.16" rx="5.2" ry="5.34"/>
	<ellipse class="st1" cx="156.93" cy="153.59" rx="8.25" ry="8.48"/>
	<g>
		<path class="st2" d="M69.75,210.52c-0.25,0-0.51,0.02-0.76,0.07c-1.03,0.2-1.92,0.79-2.51,1.66c-1.21,1.8-0.73,4.24,1.06,5.45
			c1.8,1.21,4.24,0.73,5.45-1.06c1.21-1.8,0.73-4.24-1.06-5.45C71.28,210.75,70.53,210.52,69.75,210.52z"/>
		<path class="st2" d="M115.2,189.5c1.21-1.8,0.73-4.24-1.06-5.45c-0.66-0.44-1.41-0.67-2.19-0.67c-0.25,0-0.51,0.02-0.76,0.07
			c-1.03,0.2-1.92,0.79-2.51,1.66c-1.21,1.8-0.73,4.24,1.06,5.45C111.54,191.77,113.98,191.3,115.2,189.5z"/>
		<path class="st2" d="M109.9,227.06v5.75c2.35,0.75,4.26,2.67,4.8,5.26c0.8,3.81-1.65,7.57-5.46,8.37
			c-0.49,0.1-0.97,0.15-1.45,0.15c-3.27,0-6.22-2.29-6.92-5.61v0c-0.8-3.81,1.65-7.57,5.46-8.37c0.14-0.03,0.28-0.02,0.43-0.05
			v-8.64h36.91c0-2.97-0.01-5.94-0.01-8.9l-0.01-9.76h0c0-0.31,0-0.62,0-0.94h-18.85l-16.43,7.84c0.09,0.27,0.2,0.54,0.26,0.83
			c0.8,3.81-1.65,7.57-5.46,8.37c-0.49,0.1-0.97,0.15-1.45,0.15c-3.27,0-6.22-2.29-6.92-5.61v0c-0.8-3.81,1.65-7.57,5.46-8.37
			c2.43-0.51,4.83,0.31,6.46,1.95l17.37-8.29h19.56c0-5.7,0-11.39-0.01-17.1h0l0-8.15h0.01c0-1.3,0-2.6,0-3.89h-33.27v-10.27
			c-2.6-0.6-4.76-2.63-5.35-5.41v0c-0.8-3.81,1.65-7.57,5.46-8.37c1.85-0.39,3.74-0.04,5.32,1c1.58,1.03,2.67,2.62,3.05,4.47
			c0.79,3.77-1.6,7.48-5.35,8.33v7.12h30.13c0-2.78,0-5.56-0.01-8.34h-16.3V120.4c-0.8-0.18-1.58-0.49-2.29-0.96
			c-1.58-1.03-2.67-2.62-3.05-4.47v0c-0.8-3.81,1.65-7.57,5.46-8.37c3.81-0.8,7.57,1.65,8.37,5.46c0.79,3.77-1.6,7.48-5.35,8.33
			v37.03h13.16l0-7.06h0c-0.01-3.23-0.01-6.45-0.01-9.67l-0.01-13.09h0c0-11.69-0.02-23.37-0.02-35.05h-0.01l-0.01-14.22
			c-0.02-6.36-0.05-12.9-2.5-18.77c-3.33-7.94-11.05-13.39-19.51-15.07v32.29l6.8,6.61c1.01-1.18,2.35-2.02,3.9-2.34
			c1.84-0.39,3.73-0.04,5.31,1c1.58,1.03,2.67,2.62,3.05,4.47c0.8,3.81-1.65,7.57-5.46,8.37c-0.49,0.1-0.97,0.15-1.45,0.15
			c-3.27,0-6.22-2.29-6.92-5.61c0,0,0,0,0,0c-0.22-1.04-0.18-2.1,0.07-3.1l-8.44-8.21V44.04c-2.14-0.18-4.3-0.11-6.42,0.22
			l1.5,83.47L93.07,153.8v14.26c0.38,0.09,0.76,0.19,1.12,0.34c1.75,0.72,3.11,2.08,3.83,3.82c1.5,3.6-0.21,7.74-3.81,9.24
			c-0.87,0.36-1.79,0.55-2.71,0.55c-0.91,0-1.83-0.18-2.69-0.54c-1.75-0.72-3.11-2.08-3.83-3.82c-1.5-3.6,0.21-7.74,3.81-9.24
			c0.37-0.16,0.76-0.26,1.15-0.35v-15.34l20.43-26.04l-1.47-81.74c-8.51,2.33-15.79,8.48-20.22,16.22v40.75
			c2.1,0.52,3.94,1.98,4.83,4.12c0.73,1.74,0.73,3.66,0.01,5.41s-2.08,3.11-3.82,3.83c-0.88,0.37-1.8,0.54-2.7,0.54
			c-2.77,0-5.41-1.64-6.53-4.35c-1.5-3.6,0.21-7.74,3.81-9.24c0.42-0.17,0.84-0.3,1.27-0.39V66.81c-5.57-0.05-11.09,1.72-15.7,4.84
			V88.5c2.15,0.49,4.04,1.97,4.95,4.15v0c1.5,3.6-0.21,7.74-3.81,9.24c-0.88,0.37-1.8,0.54-2.71,0.54c-2.77,0-5.4-1.64-6.53-4.35
			C61,96.34,61,94.42,61.72,92.67s2.08-3.11,3.82-3.83c0.38-0.16,0.76-0.26,1.15-0.35V74.11c-1.81,1.64-3.4,3.51-4.69,5.59
			c-5.02,8.07-5.43,18.8-1.02,27.23c-3.39,0.78-6.62,2.16-9.58,3.99v10.43l20.42,14.91c1.27-1.2,2.97-1.95,4.84-1.95
			c3.9,0,7.07,3.17,7.07,7.07c0,3.9-3.17,7.07-7.07,7.07s-7.07-3.17-7.07-7.07c0-0.89,0.18-1.73,0.48-2.51l-21.81-15.93v-9.86
			c-2.19,1.72-4.17,3.7-5.86,5.9c-1.79,2.31-3.26,4.87-4.35,7.57c-2.69,6.71-2.96,14.32-0.96,21.26h13.48
			c0.49-2.17,1.97-4.08,4.17-4.99c3.6-1.5,7.74,0.21,9.24,3.81c0.73,1.74,0.73,3.66,0.01,5.41c-0.72,1.75-2.08,3.11-3.82,3.83
			c-0.88,0.36-1.8,0.55-2.72,0.55c-0.91,0-1.83-0.18-2.69-0.54c-1.75-0.72-3.11-2.08-3.83-3.82c-0.15-0.36-0.25-0.74-0.33-1.11
			H38.16c0.79,1.97,1.76,3.86,2.93,5.63c-3.92,5.56-5.54,12.62-4.74,19.36h37.03v-6.15c-2.15-0.49-4.05-1.97-4.96-4.15
			c-1.5-3.6,0.21-7.74,3.81-9.24c3.6-1.5,7.75,0.21,9.24,3.81c1.5,3.6-0.21,7.74-3.81,9.24c-0.38,0.16-0.76,0.26-1.15,0.35v9.29
			H36.92c0.48,2.01,1.17,3.97,2.11,5.81c2.39,4.72,6.24,8.63,10.83,11.28v-10.44h55.2c0.19-0.84,0.52-1.65,1.02-2.38
			c1.05-1.57,2.66-2.63,4.51-2.99c1.85-0.36,3.74,0.02,5.3,1.08c1.57,1.05,2.63,2.66,2.99,4.51c0.36,1.85-0.02,3.74-1.08,5.3
			c-1.05,1.57-2.66,2.63-4.51,2.99c-0.46,0.09-0.91,0.13-1.37,0.13c-1.39,0-2.75-0.41-3.93-1.21c-1.5-1.01-2.52-2.53-2.92-4.29
			H52.99v8.87c3.18,1.36,6.6,2.15,10.07,2.21c-7.2,8.52-6.75,22.07-0.05,31.02c5.25,7.03,13.72,11.17,22.51,12.1v-26.78h-8.98
			c-0.2,0.74-0.49,1.45-0.93,2.11c-1.05,1.57-2.66,2.63-4.51,2.99c-0.46,0.09-0.91,0.13-1.37,0.13c-1.39,0-2.75-0.41-3.93-1.21
			c-1.57-1.05-2.63-2.66-2.99-4.51c-0.36-1.85,0.02-3.74,1.08-5.3c1.05-1.57,2.66-2.63,4.51-2.99c1.85-0.36,3.74,0.02,5.3,1.08
			c1.57,1.05,2.63,2.66,2.99,4.51c0,0.02,0,0.04,0.01,0.06h11.98v30.12c1.33,0.02,2.66-0.02,3.99-0.15c0.88,7.14,5.01,13.8,11,17.77
			c7.53,4.99,17.08,5.19,24.83,1.61v-14.74c-2.6-0.6-4.75-2.64-5.33-5.41v0c-0.8-3.81,1.65-7.57,5.46-8.37
			c1.84-0.39,3.73-0.04,5.31,1c1.58,1.03,2.67,2.62,3.05,4.47c0.79,3.78-1.61,7.49-5.36,8.34v13c4.05-2.61,7.37-6.37,9.24-11.14
			c2.79-7.09,2.81-14.94,2.81-22.57c0,0,0,0,0,0H109.9z"/>
		<path class="st2" d="M133.91,240.09c-0.22-1.03-0.82-1.91-1.7-2.48c-0.88-0.57-1.93-0.77-2.95-0.55c-1.03,0.22-1.91,0.82-2.48,1.7
			c-0.57,0.88-0.77,1.93-0.55,2.96c0.45,2.12,2.53,3.48,4.66,3.04C132.99,244.29,134.36,242.21,133.91,240.09z"/>
		<path class="st2" d="M83.34,110.25c0.83,2,3.13,2.95,5.14,2.12c2-0.83,2.95-3.14,2.12-5.14c-0.4-0.97-1.16-1.72-2.13-2.12
			c-0.48-0.2-0.99-0.3-1.5-0.3c-0.51,0-1.02,0.1-1.51,0.3C83.46,105.95,82.51,108.25,83.34,110.25z"/>
		<path class="st2" d="M64.63,96.88c0.83,2,3.14,2.94,5.14,2.12c2-0.83,2.95-3.14,2.12-5.14c-0.63-1.51-2.09-2.42-3.63-2.42
			c-0.5,0-1.01,0.1-1.5,0.3C64.75,92.57,63.8,94.88,64.63,96.88z"/>
		<path class="st2" d="M78.57,161.41c-0.4-0.97-1.16-1.72-2.13-2.12c-0.48-0.2-0.99-0.3-1.5-0.3c-0.51,0-1.02,0.1-1.51,0.3
			c-2,0.83-2.95,3.14-2.12,5.14c0.83,2,3.14,2.94,5.14,2.12C78.45,165.71,79.4,163.41,78.57,161.41z"/>
		<path class="st2" d="M100.91,210.6c-2.12,0.45-3.48,2.53-3.03,4.65c0.45,2.12,2.53,3.47,4.66,3.04c2.12-0.45,3.48-2.53,3.03-4.65
			C105.12,211.52,103.03,210.15,100.91,210.6z"/>
		<path class="st2" d="M115.78,154.1c-0.22-1.03-0.82-1.91-1.7-2.48c-0.88-0.57-1.93-0.77-2.96-0.55c-2.12,0.44-3.48,2.53-3.04,4.65
			c0.45,2.12,2.53,3.48,4.65,3.04C114.87,158.31,116.23,156.22,115.78,154.1z"/>
		<path class="st2" d="M103.94,240.33c0.45,2.12,2.53,3.48,4.66,3.04c2.12-0.45,3.48-2.53,3.03-4.65c-0.45-2.12-2.53-3.48-4.65-3.04
			C104.86,236.12,103.5,238.21,103.94,240.33z"/>
		<path class="st2" d="M132.74,112.71c-0.22-1.03-0.82-1.91-1.7-2.48c-0.88-0.57-1.93-0.77-2.95-0.55
			c-2.12,0.45-3.48,2.53-3.04,4.65c0.22,1.03,0.82,1.91,1.7,2.48c0.88,0.57,1.93,0.77,2.96,0.55
			C131.82,116.92,133.18,114.83,132.74,112.71z"/>
		<path class="st2" d="M134.53,91.81c1.03-0.22,1.91-0.82,2.48-1.7c0.57-0.88,0.77-1.93,0.55-2.95c-0.22-1.03-0.82-1.91-1.7-2.48
			c-0.65-0.42-1.38-0.64-2.14-0.64c-0.27,0-0.55,0.03-0.82,0.09c-1.03,0.22-1.91,0.82-2.48,1.7c-0.57,0.88-0.77,1.93-0.55,2.96v0
			C130.33,90.9,132.41,92.25,134.53,91.81z"/>
		<circle class="st2" cx="76.65" cy="141.37" r="3.93"/>
		<path class="st2" d="M87.87,176.44c0.83,2,3.14,2.94,5.14,2.12c0.97-0.4,1.72-1.16,2.12-2.13c0.4-0.97,0.4-2.04,0-3.01
			c-0.4-0.97-1.16-1.72-2.13-2.12c-0.48-0.2-0.99-0.3-1.5-0.3c-0.51,0-1.02,0.1-1.51,0.3C87.99,172.13,87.04,174.44,87.87,176.44z"
			/>
		<path class="st2" d="M57.43,145.41c-0.5,0-1.01,0.1-1.5,0.3c-2,0.83-2.95,3.14-2.12,5.14c0.83,2,3.14,2.94,5.14,2.12
			c0.97-0.4,1.72-1.16,2.12-2.13c0.4-0.97,0.4-2.04,0-3.01v0C60.44,146.32,58.97,145.41,57.43,145.41z"/>
	</g>
</g>
<path class="st0" d="M402.01,122h-0.9l-30.38,87.01h-20.14L320.21,122h-0.9l-7.01,87.91h-33.8l13.3-148.32h35.96l32.9,85.57
	l32.9-85.57h35.96l13.3,148.32h-33.8L402.01,122z"/>
<path class="st0" d="M482.92,168.2c0,14.2,11.87,19.06,19.96,19.06c10.25,0,14.74-1.98,22.47-10.25l23.01,11.51
	c-10.43,17.44-27.33,24.09-47.82,24.09c-27.87,0-50.7-21.93-50.7-48.72c0-26.97,22.83-48.9,50.7-48.9
	c28.05,0,49.44,16.54,49.44,48.9c0,1.26,0,3.24-0.18,4.31H482.92z M518.87,150.59c-1.44-9.71-8.09-14.92-17.44-14.92
	c-10.97,0-17.08,6.47-17.62,14.92H518.87z"/>
<path class="st0" d="M604.09,114.99c12.41,0,22.65,4.13,30.2,11.51V55.3h31.82v154.61h-31.46v-10.43h-0.36
	c-6.83,7.55-17.62,13.12-30.2,13.12c-26.97,0-45.84-21.75-45.84-48.72S577.12,114.99,604.09,114.99z M613.62,185.46
	c12.4,0,21.39-8.99,21.39-21.57c0-12.76-9.53-21.75-21.39-21.75c-12.05,0-21.57,8.99-21.57,21.75
	C592.05,176.47,600.68,185.46,613.62,185.46z"/>
<path class="st0" d="M722.93,79.57c0,10.43-8.45,18.88-18.88,18.88S685.17,90,685.17,79.57c0-10.43,8.45-18.88,18.88-18.88
	S722.93,69.14,722.93,79.57z M687.69,209.91h31.82v-92.23h-31.82V209.91z"/>
<path class="st0" d="M839.42,168.2c0,14.2,11.87,19.06,19.96,19.06c10.25,0,14.74-1.98,22.47-10.25l23.01,11.51
	c-10.43,17.44-27.33,24.09-47.82,24.09c-27.87,0-50.7-21.93-50.7-48.72c0-26.97,22.83-48.9,50.7-48.9
	c28.05,0,49.44,16.54,49.44,48.9c0,1.26,0,3.24-0.18,4.31H839.42z M875.38,150.59c-1.44-9.71-8.09-14.92-17.44-14.92
	c-10.97,0-17.08,6.47-17.62,14.92H875.38z"/>
<path class="st0" d="M982.89,161.73l48.18,48.18h-40.99l-36.86-36.86v36.86h-31.82V55.3h31.82v94.56l32.18-32.18h41.35
	L982.89,161.73z"/>
<path class="st1" d="M1086.59,242.59l-18.46,28.58H778.84c-0.91,0-1.79-0.02-2.63-0.08c-23.16-1.26-28.83-19.38-28.83-35.15v-98.62
	h-13.3v-24.27h13.3V78.69h31.82v34.35h19.42v24.27h-19.42v92.5c0,8.63,7.12,12.77,12.15,12.77H1086.59z"/>
</svg>
