<?xml version="1.0" encoding="UTF-8"?>
<!-- Generator: Adobe Illustrator 27.7.0, SVG Export Plug-In . SVG Version: 6.00 Build 0)  -->
<svg xmlns="http://www.w3.org/2000/svg" xmlns:xlink="http://www.w3.org/1999/xlink" version="1.1" id="Layer_1" x="0px" y="0px" viewBox="0 0 469.9 179" style="enable-background:new 0 0 469.9 179;" xml:space="preserve">
<style type="text/css">
	.st0{fill-rule:evenodd;clip-rule:evenodd;fill:#123D8A;}
	.st1{fill-rule:evenodd;clip-rule:evenodd;fill:#00ABC5;}
</style>
<g>
	<path class="st0" d="M8,162.1c1-5.6,2.1-12.4,3.3-20.4c0.9-6,1.8-12.6,2.8-19.8l2.4,0.4l2.4-0.4c1.4,3.1,2.9,6.3,4.4,9.3   c0.7,1.5,2.2,4.5,4.5,9.1c1.1,2.3,2.6,5.3,4.5,9c2.3-4.5,4.6-8.9,6.9-13.4c2.5-4.9,4.8-9.6,6.8-14.1l2.5,0.4l2.4-0.4   c0.8,7.8,1.3,12.2,1.5,13.4c0.4,3.3,1,7.8,1.7,13.3c0.5,3.8,1.1,8.3,1.9,13.4c-1.6-0.2-3.2-0.4-4.8-0.4c-1.6,0-3.1,0.1-4.8,0.4   c0-4-0.3-8.4-0.9-13.3c-0.6-4.9-1.1-9.5-1.6-14c-0.5,1-2,4.1-4.4,9c-1.9,4-3.4,7-4.4,9.2c-1.6,3.3-2.9,6.2-4.1,8.7h-1.2h-1   c-2.3-4.9-4-8.3-5-10.3c-4.7-9.7-7.3-15-7.8-16c-0.7,4.9-1.3,9.9-1.8,14.8c-0.5,4.9-0.7,8.9-0.7,11.8l-2.7-0.4L8,162.1L8,162.1z    M61.7,161.8V122H84l-0.5,2.6l0.4,2.4c-1.6-0.2-3.4-0.4-5.5-0.5c-2.1-0.2-4.1-0.2-6-0.2h-1.9v12.5H78c0.7,0,1.7,0,2.8-0.1   c1.1-0.1,2.1-0.2,2.8-0.4l-0.3,2.7l0.3,2.4c-0.7-0.2-1.8-0.3-3.2-0.4c-1.4-0.1-2.7-0.2-3.9-0.2h-6.1v14.8c2.3,0,4.7-0.1,7-0.2   c2.3-0.2,4.5-0.3,6.6-0.6l-0.5,2.7l0.4,2.3H61.7L61.7,161.8z M90.5,161.8V122h19.8c4.9,0,9,1.5,12.2,4.5c3.7,3.4,5.5,8,5.5,14   c0,6.3-1.8,11.4-5.5,15.2c-3.9,4.1-9.4,6.1-16.4,6.1H90.5L90.5,161.8z M99.1,158.3h5.4c3.8,0,6.9-1,9-2.9c3.2-2.8,4.8-7.7,4.8-14.6   c0-5.6-1.4-9.7-4.1-12.2c-2.2-2.1-5.3-3.1-9.2-3.1h-5.9V158.3L99.1,158.3z M134.5,161.8V122h22.3l-0.5,2.6l0.4,2.4   c-1.6-0.2-3.4-0.4-5.5-0.5c-2.1-0.2-4.1-0.2-6-0.2h-1.9v12.5h7.6c0.7,0,1.7,0,2.8-0.1c1.1-0.1,2.1-0.2,2.8-0.4l-0.4,2.7l0.4,2.4   c-0.7-0.2-1.8-0.3-3.2-0.4c-1.4-0.1-2.7-0.2-3.9-0.2h-6.1v14.8c2.3,0,4.7-0.1,7-0.2c2.3-0.2,4.5-0.3,6.6-0.6l-0.5,2.7l0.4,2.3   H134.5L134.5,161.8z M163.2,162v-40h5.8c1.7,1.9,4.5,4.9,8.3,9c2.7,2.9,5.4,5.8,8.1,8.6c2.7,2.9,5.6,6.1,8.8,9.7V122l2.3,0.2   l2.4-0.2v40.1l-4.9-0.1c-2.8-3.1-5.6-6.2-8.4-9.2c-2.7-3-5.6-6.1-8.5-9.3c-3.6-3.9-6.7-7.1-9.2-9.7v28.3l-2.6-0.4L163.2,162   L163.2,162z"></path>
	<path class="st0" d="M280.8,122l4.3,0.4l4.3-0.4v40.1c-1.6-0.2-3.1-0.4-4.5-0.4c-1.2,0-2.6,0.1-4.1,0.4V122L280.8,122z M298.9,162   v-40h5.8c1.7,1.9,4.5,4.9,8.3,9c2.7,2.9,5.4,5.8,8.1,8.6c2.7,2.9,5.6,6.1,8.8,9.7V122l2.3,0.2l2.4-0.2v40.1l-4.9-0.1   c-2.8-3.1-5.6-6.2-8.4-9.2c-2.7-3-5.6-6.1-8.5-9.3c-3.6-3.9-6.7-7.1-9.2-9.7v28.3l-2.6-0.4L298.9,162L298.9,162z M340.4,162.1   c1-5.6,2.1-12.4,3.3-20.4c0.9-6,1.8-12.6,2.8-19.8l2.4,0.4l2.4-0.4c1.4,3.1,2.9,6.3,4.4,9.3c0.7,1.5,2.2,4.5,4.5,9.1   c1.1,2.3,2.6,5.3,4.5,9c2.3-4.5,4.6-8.9,6.9-13.4c2.5-4.9,4.8-9.6,6.8-14.1l2.5,0.4l2.4-0.4c0.8,7.8,1.3,12.2,1.5,13.4   c0.4,3.3,1,7.8,1.7,13.3c0.5,3.8,1.1,8.3,1.9,13.4c-1.6-0.2-3.2-0.4-4.8-0.4c-1.6,0-3.1,0.1-4.8,0.4c0-4-0.3-8.4-0.9-13.3   c-0.6-4.9-1.1-9.5-1.6-14c-0.5,1-2,4.1-4.4,9c-1.9,4-3.4,7-4.4,9.2c-1.6,3.3-2.9,6.2-4.1,8.7h-1.2h-1c-2.3-4.9-4-8.3-5-10.3   c-4.7-9.7-7.3-15-7.8-16c-0.7,4.9-1.3,9.9-1.8,14.8c-0.5,4.9-0.7,8.9-0.7,11.8l-2.7-0.4L340.4,162.1L340.4,162.1z M394.1,161.8V122   h22.3l-0.5,2.6l0.4,2.4c-1.6-0.2-3.4-0.4-5.5-0.5c-2.1-0.2-4.1-0.2-6-0.2h-1.9v12.5h7.6c0.7,0,1.7,0,2.8-0.1   c1.1-0.1,2.1-0.2,2.8-0.4l-0.3,2.7l0.3,2.4c-0.7-0.2-1.8-0.3-3.2-0.4c-1.4-0.1-2.7-0.2-3.9-0.2h-6.1v14.8c2.3,0,4.7-0.1,7-0.2   c2.3-0.2,4.5-0.3,6.6-0.6l-0.5,2.7l0.4,2.3H394.1L394.1,161.8z M422.9,161.8V122h19.8c4.9,0,9,1.5,12.2,4.5c3.7,3.4,5.5,8,5.5,14   c0,6.3-1.8,11.4-5.5,15.2c-3.9,4.1-9.4,6.1-16.4,6.1H422.9L422.9,161.8z M431.5,158.3h5.4c3.8,0,6.9-1,9-2.9   c3.2-2.8,4.8-7.7,4.8-14.6c0-5.6-1.4-9.7-4.1-12.2c-2.2-2.1-5.3-3.1-9.2-3.1h-5.9V158.3L431.5,158.3z"></path>
	<path class="st1" d="M225,117.3c-3.2,5.6,3.6,8.2,12.3,10.1v-8.5C233,118.8,228.8,118.2,225,117.3L225,117.3z M259.4,48.3   c-2.4,1.6-4.8,3-7.1,4c2.4,3.8,4.3,7.6,5.7,11.4c5.2-0.9,10.3-2.2,15.5-3.9c-1.6-2.1-3.5-4.1-5.7-5.9   C265.3,51.7,262.4,49.8,259.4,48.3L259.4,48.3z M250.8,52.9c-3.5,1.4-7,2.2-10.4,2.3v10.1c5.1-0.1,10.2-0.5,15.3-1.3   C254.5,60.3,252.9,56.6,250.8,52.9L250.8,52.9z M237.2,55.2c-3.5-0.2-6.9-0.9-10.4-2.3c-2.1,3.7-3.7,7.4-4.8,11.2   c5.1,0.8,10.2,1.2,15.3,1.3V55.2L237.2,55.2z M225.4,52.3c-2.4-1-4.7-2.4-7.1-4c-3.1,1.6-5.9,3.5-8.4,5.6c-2.1,1.8-4,3.8-5.7,5.9   c5.2,1.7,10.3,3,15.5,3.9C221,59.9,222.9,56.1,225.4,52.3L225.4,52.3z M218.9,47.9c2.5,1.2,4.9,2.2,7.4,3c1.6-2.3,3.3-4.7,5.3-7   C227.1,44.6,222.8,46,218.9,47.9L218.9,47.9z M227.7,51.3c3.2,0.9,6.4,1.3,9.5,1.5v-9.5c-1.5,0.1-2.9,0.2-4.3,0.4   C230.9,46.2,229.2,48.8,227.7,51.3L227.7,51.3z M240.4,52.8c3.2-0.1,6.3-0.6,9.5-1.5c-1.5-2.5-3.2-5.1-5.2-7.6   c-1.4-0.2-2.9-0.3-4.3-0.4V52.8L240.4,52.8z M251.3,50.9c2.5-0.8,4.9-1.7,7.4-3c-3.9-1.9-8.2-3.3-12.7-4   C248,46.2,249.8,48.6,251.3,50.9L251.3,50.9z M259.3,112.4c-2.5-1.7-5-3.1-7.5-4.2c2.3-3.8,4.2-7.6,5.6-11.3   c5.3,0.9,10.7,2.2,16.1,4c-1.7,2.1-3.6,4.1-5.7,5.9C265.3,109,262.4,110.9,259.3,112.4L259.3,112.4z M250.2,107.6   c-3.3-1.3-6.6-2-9.9-2.1V95.3c4.9,0.1,9.7,0.5,14.6,1.2C253.8,100.2,252.2,103.9,250.2,107.6L250.2,107.6z M237.2,105.4   c-3.3,0.2-6.6,0.9-9.9,2.1c-1.9-3.7-3.5-7.4-4.8-11.1c4.9-0.7,9.8-1.1,14.6-1.2V105.4L237.2,105.4z M225.8,108.2   c-2.5,1.1-5,2.5-7.5,4.2c-3.1-1.6-5.9-3.5-8.5-5.6c-2.1-1.8-4-3.8-5.7-5.9c5.4-1.8,10.7-3.1,16-4   C221.6,100.7,223.5,104.4,225.8,108.2L225.8,108.2z M218.9,112.7c2.6-1.3,5.2-2.3,7.8-3.1c1.5,2.4,3.2,4.8,5,7.2   C227.2,116.1,222.8,114.7,218.9,112.7L218.9,112.7z M228.2,109.2c3-0.8,6-1.2,9-1.4v9.5c-1.4,0-2.8-0.2-4.2-0.3   C231.3,114.4,229.7,111.8,228.2,109.2L228.2,109.2z M240.4,107.8c3,0.1,6,0.6,9,1.4c-1.4,2.6-3.1,5.2-4.8,7.8   c-1.4,0.2-2.8,0.3-4.2,0.3V107.8L240.4,107.8z M251,109.6c2.6,0.8,5.2,1.8,7.8,3.1c-4,2-8.3,3.4-12.8,4.1   C247.8,114.4,249.4,112,251,109.6L251,109.6z M273.9,100.3c-5.3-2.2-10.6-3.9-15.9-5.1c1.4-4,2.3-8,2.6-12c6.6-1,13.3-2.4,20-4.3   c0,0.5,0,1,0,1.5C280.7,87.7,278.2,94.5,273.9,100.3L273.9,100.3z M255.6,94.6c-5.1-1-10.2-1.5-15.2-1.6v-8.3   c5.8-0.1,11.5-0.5,17.4-1.2C257.4,87.2,256.7,90.9,255.6,94.6L255.6,94.6z M237.2,93c-5,0.1-10.1,0.6-15.2,1.6   c-1.1-3.7-1.8-7.4-2.2-11.1c5.8,0.7,11.6,1.1,17.3,1.2V93L237.2,93z M219.6,95.2c-5.2,1.2-10.5,2.9-15.9,5.1   c-4.3-5.8-6.8-12.6-6.8-19.9c0-0.5,0-1,0-1.5c6.7,1.9,13.4,3.3,20,4.3C217.3,87.2,218.2,91.2,219.6,95.2L219.6,95.2z M273.9,60.4   c-5.2,2.2-10.3,3.8-15.4,5c1.7,5.3,2.5,10.6,2.2,15.9c6.6-0.7,13.2-1.7,19.9-3.1C280.2,71.7,277.8,65.6,273.9,60.4L273.9,60.4z    M256.2,65.9c-5.3,1.1-10.5,1.7-15.8,1.7v14.8c5.8,0,11.7-0.3,17.5-0.9C258.1,76.3,257.6,71.1,256.2,65.9L256.2,65.9z M237.2,67.6   c-5.2-0.1-10.5-0.7-15.8-1.7c-1.4,5.2-2,10.5-1.7,15.7c5.8,0.5,11.7,0.8,17.5,0.9V67.6L237.2,67.6z M219.1,65.4   c-5.1-1.2-10.2-2.8-15.4-5c-3.9,5.2-6.3,11.3-6.7,17.8c6.6,1.4,13.2,2.4,19.9,3.1C216.6,76,217.3,70.7,219.1,65.4L219.1,65.4z    M243.9,20.2c1.5-0.8,2.9-1.1,3.2-0.5c0.3,0.6-0.6,1.7-2.1,2.6c-1.5,0.8-2.9,1.1-3.2,0.5C241.6,22.2,242.5,21.1,243.9,20.2   L243.9,20.2z M260.1,169.1l0.5-0.7c-6.7-2.8-15-4.7-20.2-5v-16.8c8.9-2.9,21.3-5.1,21.4-10c0.1-4.7-11.2-6.4-21.4-8.5v-9.2   c12.8-0.3,24.2-4.7,32.3-11.6c8.1-6.9,13.2-16.5,13.2-27c0-10.5-5-20-13.2-27c-3.5-3-7.7-5.6-12.4-7.5   c13.1-15.1,25.7-44.1-10.8-33.7c-3.8,1.3-6.3,1.5-8.6,3.4c-6.6,5.4-12.4,13.7-7.6,13.9c5.4,0.5,11,0.3,16.6-5.8   c1.1-1.3,1.6-3.2,2.8-4.8c0.9-1.2,1.5-1.9,3-2.3c21.6-6.2,5.6,18.2-2.6,26.9c-4-1-8.2-1.6-12.6-1.7v-5c0-2.2-3.1-2.2-3.1,0v5   c-12.8,0.3-24.1,4.7-32.2,11.6c-8.1,6.9-13.2,16.5-13.2,27c0,10.5,5.1,20,13.2,27c3.4,2.9,7.4,5.3,11.8,7.2   c-8.8,9.7,7.2,13.3,20.4,16.3V144c-5.7,2-10.9,4-11.2,6.5c-0.2,1.7,2.6,3.8,7.2,6.7v-0.4c-1.8-2.2-2-4-1.5-5.3   c0.7-1.6,2.7-2.8,5.5-3.9v15.7c-5.3,0.3-13.4,2.2-20.1,5l0.5,0.7c11.7-2.5,17-2.5,21.3-2.5C243.1,166.6,248.4,166.6,260.1,169.1   L260.1,169.1z M240.4,143c6.1-2.1,11.9-4.1,11.9-6.3c0-2.1-5.2-3.6-11.9-5.1V143L240.4,143z"></path>
</g>
</svg>
