<svg xmlns="http://www.w3.org/2000/svg" width="170" height="33" viewBox="0 0 170 33" class="Navigation_Logo__3f6yA"><g fill="none" fill-rule="evenodd"><path fill="currentColor" d="M160.675 3.907v6.224h7.068l-.735 3.664h-6.333v9.372c0 2.166 1.495 3.86 3.404 3.86.994 0 1.919-.255 2.758-.759l.249-.158 1.842 3.14c-1.34 1.02-3.26 1.621-5.186 1.621-2.904 0-7.197-2.098-7.353-7.852l-.004-.324V3.907h4.29zm-74.18 4.427c6.214 0 11.27 5.057 11.27 11.267 0 6.21-5.056 11.267-11.27 11.267-6.21 0-11.267-5.057-11.267-11.267 0-6.21 5.053-11.267 11.267-11.267zm-24.573 0c6.213 0 11.267 5.053 11.267 11.263 0 .443-.028.892-.082 1.343l-.063.45H55.177l.028.25c.324 2.831 3.274 5.05 6.717 5.05 2.512 0 4.66-.962 5.831-2.596l.136-.2 4.702.155a8.56 8.56 0 0 1-.872 1.86c-2.128 3.197-5.606 4.959-9.797 4.959-6.214 0-11.27-5.057-11.27-11.267 0-6.21 5.056-11.267 11.27-11.267zm59.027 0c6.214 0 11.267 5.053 11.267 11.263 0 .443-.027.892-.081 1.343l-.063.45h-17.867l.028.25c.323 2.831 3.274 5.05 6.716 5.05 2.513 0 4.66-.962 5.832-2.596l.136-.2 4.701.155a8.817 8.817 0 0 1-.85 1.828l-.022.032c-2.127 3.197-5.605 4.959-9.797 4.959-6.213 0-11.27-5.057-11.27-11.267 0-6.21 5.057-11.267 11.27-11.267zm24.335 0c3.7 0 7.12 1.931 9.256 5.198l.185.291-3.604 2.237c-1.333-2.191-3.499-3.492-5.837-3.492a7.033 7.033 0 0 0-7.026 7.026c0 3.875 3.154 7.026 7.026 7.022 2.34 0 4.53-1.18 5.828-3.11l.146-.227 3.611 2.244a11.328 11.328 0 0 1-9.585 5.345c-6.214 0-11.27-5.057-11.27-11.267 0-6.21 5.056-11.267 11.27-11.267zm-105.702.517c5.686 0 9.051 3.256 9.051 8.953v12.547h-4.666V18.409c0-3.19-1.629-5.187-5-5.187-3.872 0-5.863 3.182-5.863 6.425V30.35h-4.666V9.526h4.617l.05 2.687c1.297-2.086 3.382-3.362 6.477-3.362zm68.76-6.85c.355 0 .75.018 1.179.052l.327.029v3.826a7.037 7.037 0 0 0-.682-.035c-3.238 0-3.745 1.742-3.769 3.715l-.001.156v.38h4.628l-.795 3.664h-3.833v16.528h-4.547V13.788h-2.757l-.228-3.664h2.985v-1.08c0-3.361 1.962-7.043 7.494-7.043zM86.496 12.568a7.033 7.033 0 0 0-7.026 7.026 7.033 7.033 0 0 0 7.026 7.026 7.033 7.033 0 0 0 7.026-7.026 7.033 7.033 0 0 0-7.026-7.026zm-24.573-.074c-3.317 0-6.066 1.966-6.634 4.709l-.04.218-.043.26h13.433l-.042-.26c-.232-1.393-1.072-2.662-2.367-3.577a7.52 7.52 0 0 0-4.307-1.35zm59.027 0c-3.316 0-6.065 1.966-6.634 4.709l-.04.218-.042.26h13.433l-.042-.26c-.232-1.393-1.073-2.662-2.367-3.577a7.52 7.52 0 0 0-4.308-1.35z"></path><g fill-rule="nonzero"><path fill="#ff8059" d="M2.609 14.994h14.755v10.451H2.609z"></path><path fill="#ff9e75" d="M9.987 15.504a8.132 8.132 0 0 1 7.377 4.716A8.13 8.13 0 0 0 9.983 8.679a8.13 8.13 0 0 0-7.38 11.54 8.144 8.144 0 0 1 7.384-4.715z"></path><path fill="#ffc1a9" d="M9.987 24.939a8.132 8.132 0 0 1-7.378-4.716A8.13 8.13 0 0 0 9.99 31.764a8.13 8.13 0 0 0 7.381-11.54c-1.297 2.78-4.114 4.715-7.384 4.715z"></path><circle cx="9.987" cy="9.986" r="8.13" fill="#f50" transform="rotate(-76.785 9.987 9.986)"></circle></g></g></svg>