 <svg  version="1.0" xmlns="http://www.w3.org/2000/svg"  width="150.000000pt" height="53.000000pt" viewBox="0 0 219.000000 53.000000"  preserveAspectRatio="xMidYMid meet">  <g transform="translate(0.000000,53.000000) scale(0.100000,-0.100000)" fill="#59917f" stroke="none"> <path d="M565 513 c-89 -18 -155 -36 -155 -42 0 -3 31 -5 70 -3 181 9 353 -82 355 -188 0 -46 13 -39 57 29 56 89 27 174 -68 200 -37 10 -216 13 -259 4z m190 -17 c118 -31 163 -84 121 -142 -14 -18 -16 -17 -50 22 -22 26 -62 54 -105 75 -74 35 -83 44 -53 52 29 8 35 7 87 -7z"/> <path d="M1220 495 c-5 -14 -25 -31 -45 -39 -19 -8 -35 -20 -35 -27 0 -6 7 -8 15 -5 8 3 23 9 32 13 13 5 15 3 8 -13 -4 -10 -32 -89 -62 -174 -58 -166 -64 -177 -94 -182 -11 -2 -18 -7 -17 -13 4 -13 161 -10 166 4 2 6 -7 11 -22 11 -32 0 -33 14 -7 90 19 53 20 54 58 55 80 2 161 81 170 166 4 38 1 47 -20 67 -16 15 -38 24 -61 25 -32 1 -35 3 -30 24 5 20 2 23 -20 23 -19 0 -29 -7 -36 -25z m88 -57 c31 -31 -1 -146 -52 -186 -29 -22 -56 -20 -56 5 0 8 14 54 31 103 32 91 48 107 77 78z"/> <path d="M1033 470 c-61 -37 -67 -75 -22 -143 17 -26 28 -54 25 -62 -8 -22 -43 -18 -67 6 -20 20 -22 20 -37 5 -20 -20 -7 -47 30 -60 36 -13 97 19 114 60 16 38 12 53 -29 111 -16 23 -26 46 -23 52 11 17 41 13 61 -9 14 -15 21 -17 32 -9 18 15 17 25 -7 49 -25 25 -37 25 -77 0z"/> <path d="M1519 467 c-74 -39 -132 -145 -115 -212 14 -55 90 -57 151 -3 43 37 36 59 -7 23 -17 -15 -40 -25 -52 -23 -17 2 -21 10 -21 41 0 38 1 39 55 57 51 17 110 66 110 90 0 17 -39 50 -58 50 -11 0 -39 -10 -63 -23z m61 -21 c0 -20 -38 -65 -71 -81 -16 -9 -29 -12 -29 -7 0 12 49 85 64 94 18 12 36 9 36 -6z"/> <path d="M1713 470 c-61 -37 -68 -81 -22 -145 47 -65 17 -103 -44 -55 -22 18 -26 18 -38 4 -16 -20 -2 -45 33 -58 17 -6 35 -4 62 9 67 32 76 88 26 159 -18 24 -29 49 -26 55 11 17 41 13 61 -9 14 -15 21 -17 32 -9 18 15 17 25 -7 49 -25 25 -37 25 -77 0z"/> <path d="M422 408 c-38 -33 -38 -38 0 -31 18 3 28 13 31 31 3 15 5 28 4 29 -1 1 -17 -12 -35 -29z"/> <path d="M480 413 c0 -26 5 -32 28 -36 39 -8 40 0 4 36 l-32 32 0 -32z"/> <path d="M271 407 c-30 -12 -74 -40 -98 -63 -36 -34 -43 -47 -43 -79 0 -32 7 -45 43 -79 37 -35 152 -94 163 -83 8 8 -79 57 -102 57 -13 0 -24 5 -24 11 0 6 7 8 16 5 9 -3 14 -3 12 1 -2 5 -10 25 -17 45 -13 32 -18 36 -42 31 -14 -3 -29 0 -33 5 -8 13 26 25 46 17 11 -4 19 3 26 22 5 15 13 36 17 45 5 13 2 15 -16 11 -15 -4 -20 -3 -15 5 4 7 18 12 31 12 19 0 82 33 104 56 9 9 -16 2 -68 -19z"/> <path d="M345 402 c-49 -26 -49 -27 -21 -30 22 -3 37 4 60 27 37 38 27 39 -39 3z"/> <path d="M552 399 c23 -23 38 -29 62 -27 31 3 31 3 -21 31 -68 35 -79 34 -41 -4z"/> <path d="M594 421 c4 -6 13 -11 19 -11 7 0 23 -9 37 -20 14 -11 35 -20 47 -20 12 0 25 -5 29 -11 4 -8 0 -9 -15 -4 -24 7 -26 -2 -6 -29 8 -11 15 -28 15 -39 0 -14 5 -17 20 -12 11 3 28 2 37 -4 17 -9 17 -10 1 -16 -10 -4 -25 -5 -33 -1 -10 4 -20 -6 -32 -32 -9 -20 -19 -41 -21 -46 -2 -4 6 -5 18 -1 15 5 20 4 16 -4 -4 -6 -16 -11 -26 -11 -11 0 -41 -14 -67 -31 -53 -34 -31 -32 52 5 55 25 107 73 116 108 13 52 -36 117 -116 153 -70 31 -99 40 -91 26z"/> <path d="M259 332 c-24 -31 -26 -67 -3 -58 9 3 28 6 43 6 23 0 30 6 38 34 10 34 10 34 -24 38 -28 3 -38 -1 -54 -20z"/> <path d="M623 352 c-30 -3 -32 -5 -26 -35 3 -18 7 -34 9 -36 4 -4 94 -8 94 -4 0 11 -29 71 -36 75 -5 2 -23 2 -41 0z"/> <path d="M366 328 c-11 -44 -8 -48 39 -48 45 0 45 0 45 35 0 34 -1 35 -39 35 -32 0 -40 -4 -45 -22z"/> <path d="M480 315 l0 -35 50 0 c50 0 50 0 44 28 -10 41 -12 42 -55 42 -38 0 -39 -1 -39 -35z"/> <path d="M64 258 c-35 -43 -54 -89 -54 -133 0 -47 40 -89 101 -105 61 -17 256 -8 344 16 l70 19 -100 6 c-117 8 -180 26 -247 71 -53 36 -94 103 -83 138 9 28 1 25 -31 -12z m30 -88 c20 -34 101 -91 159 -111 47 -16 47 -26 1 -35 -72 -13 -224 56 -224 103 0 18 28 73 38 73 4 0 16 -14 26 -30z"/> <path d="M1830 281 c-15 -4 -20 -10 -13 -14 17 -11 -16 -90 -35 -82 -36 13 -112 -64 -112 -113 0 -38 57 -32 82 8 17 27 32 26 17 -1 -17 -32 2 -41 40 -18 18 11 30 23 27 26 -4 4 -12 1 -18 -5 -27 -27 -26 -7 6 81 19 50 37 100 41 110 8 18 4 19 -35 8z m-40 -125 c0 -18 -45 -73 -71 -87 -29 -15 -24 10 12 59 31 42 59 55 59 28z"/> <path d="M240 242 c0 -16 20 -55 31 -63 5 -3 24 -3 43 -1 33 4 33 4 23 37 -9 30 -14 34 -53 37 -32 2 -44 -1 -44 -10z"/> <path d="M643 252 c-34 -2 -43 -7 -43 -22 0 -10 -3 -25 -6 -33 -4 -11 4 -16 31 -19 38 -4 48 2 64 44 12 32 9 34 -46 30z"/> <path d="M360 238 c1 -45 13 -58 51 -58 38 0 39 1 39 35 0 35 0 35 -45 35 -29 0 -45 -4 -45 -12z"/> <path d="M480 215 c0 -34 1 -35 39 -35 43 0 45 1 55 43 6 27 6 27 -44 27 l-50 0 0 -35z"/> <path d="M1894 239 c-8 -14 11 -33 25 -25 6 4 11 14 11 22 0 16 -26 19 -36 3z"/> <path d="M1341 177 c-14 -6 -27 -19 -29 -27 -5 -13 -3 -13 12 -1 26 22 28 8 7 -47 -26 -65 -11 -77 25 -20 16 26 23 43 16 46 -8 2 -7 11 3 26 23 34 7 45 -34 23z"/> <path d="M1407 170 c-15 -12 -27 -26 -27 -32 0 -7 10 -2 23 10 35 33 39 16 11 -40 -37 -73 -16 -85 28 -17 42 65 68 90 68 65 0 -9 -9 -35 -20 -57 -12 -22 -18 -44 -15 -48 8 -14 42 -1 62 22 17 20 17 21 0 8 -28 -22 -30 -7 -5 43 19 39 20 49 9 56 -20 11 -42 2 -68 -29 l-22 -26 2 29 c3 37 -13 42 -46 16z"/> <path d="M1615 172 c-61 -38 -75 -114 -22 -120 29 -4 57 12 57 31 0 7 -4 7 -12 -1 -17 -17 -48 -15 -48 2 0 8 17 23 37 33 46 23 64 50 43 63 -20 13 -20 13 -55 -8z m35 -10 c0 -14 -39 -46 -47 -39 -3 4 2 16 12 27 19 21 35 26 35 12z"/> <path d="M1871 169 c-18 -11 -31 -23 -27 -26 3 -3 12 0 21 7 20 17 19 7 -6 -41 -11 -23 -18 -48 -15 -56 5 -13 11 -12 39 4 30 18 33 18 49 2 10 -10 25 -15 37 -12 22 6 60 43 43 43 -6 0 -14 -4 -17 -10 -11 -18 -35 -11 -35 10 0 25 27 80 39 80 5 0 12 -7 15 -16 5 -13 9 -14 21 -4 12 10 13 16 4 26 -6 8 -17 14 -25 14 -18 0 -84 -59 -84 -75 0 -11 -41 -45 -55 -45 -3 0 6 23 21 51 30 60 22 77 -25 48z"/> <path d="M2156 181 c-3 -5 -15 -7 -26 -4 -23 6 -93 -59 -103 -96 -9 -36 16 -44 57 -16 34 23 37 23 31 6 -3 -11 -2 -22 3 -25 10 -6 76 33 68 41 -3 3 -12 0 -21 -7 -26 -22 -26 -5 0 53 19 44 22 57 10 57 -7 0 -16 -4 -19 -9z m-24 -47 c-14 -27 -61 -69 -68 -62 -7 8 13 47 39 76 24 26 45 15 29 -14z"/> <path d="M310 146 c8 -8 38 -24 65 -36 l50 -21 -34 35 c-25 26 -44 36 -65 36 -26 0 -28 -2 -16 -14z"/> <path d="M391 153 c0 -5 16 -21 35 -37 l35 -29 -7 29 c-8 35 -3 30 -36 38 -16 3 -28 3 -27 -1z"/> <path d="M508 152 c-24 -3 -28 -8 -28 -35 l0 -32 32 32 c36 36 35 40 -4 35z"/> <path d="M541 124 c-19 -19 -31 -34 -27 -34 10 0 126 60 126 65 0 3 -15 5 -32 4 -24 0 -43 -10 -67 -35z"/> </g> </svg> 