<?xml version="1.0" encoding="UTF-8"?>
<svg xmlns="http://www.w3.org/2000/svg" xmlns:xlink="http://www.w3.org/1999/xlink" id="Gruppe_756" data-name="Gruppe 756" width="147.59" height="39.93" viewBox="0 0 147.59 39.93">
  <defs>
    <clipPath id="clip-path">
      <rect id="Rechteck_109" data-name="Rechteck 109" width="147.59" height="39.93" fill="none"></rect>
    </clipPath>
  </defs>
  <g id="Gruppe_153" data-name="Gruppe 153" clip-path="url(#clip-path)">
    <path id="Pfad_136" data-name="Pfad 136" d="M257.551,112.434q0-4.424,0-8.848c0-.136-.053-.286.064-.406a.528.528,0,0,1,.117.431q.006,4.193,0,8.386a.926.926,0,0,1-.038.316.484.484,0,0,1-.075.121Z" transform="translate(-180.972 -72.504)" fill="#d8d8d9"></path>
    <path id="Pfad_137" data-name="Pfad 137" d="M435.836,133.791l0,.074h-5.846c0-.027,0-.053.006-.08a.662.662,0,0,1,.473-.1q2.447,0,4.895,0a.619.619,0,0,1,.47.11" transform="translate(-302.151 -93.934)" fill="#d8d8d9"></path>
    <path id="Pfad_138" data-name="Pfad 138" d="M488.019,133.861c0-.021,0-.042,0-.063a.3.3,0,0,1,.253-.108,16.925,16.925,0,0,1,2.162.034c.066.022.076.078.083.136Z" transform="translate(-342.924 -93.93)" fill="#d9d9da"></path>
    <path id="Pfad_139" data-name="Pfad 139" d="M274.35,133.865c0-.019,0-.039,0-.058a.37.37,0,0,1,.318-.12c.588-.012,1.177-.009,1.765,0a.742.742,0,0,1,.335.1l.009.083Z" transform="translate(-192.78 -93.935)" fill="#d8d8d9"></path>
    <path id="Pfad_140" data-name="Pfad 140" d="M303.4,133.739c0,.025,0,.051,0,.076h-2.424l.079-.073a5.182,5.182,0,0,1,2.343,0" transform="translate(-211.494 -93.884)" fill="#d8d8d9"></path>
    <path id="Pfad_141" data-name="Pfad 141" d="M322.071,133.864c0-.019,0-.039,0-.058a.372.372,0,0,1,.319-.12q.867-.017,1.735,0a.455.455,0,0,1,.3.1c0,.027,0,.053.006.08Z" transform="translate(-226.313 -93.934)" fill="#d8d8d9"></path>
    <path id="Pfad_142" data-name="Pfad 142" d="M257.813,133.866c0-.026,0-.053,0-.079a.433.433,0,0,1,.294-.1c.54-.011,1.08-.012,1.621,0a.383.383,0,0,1,.29.1l0,.073Z" transform="translate(-181.163 -93.935)" fill="#d8d8d9"></path>
    <path id="Pfad_143" data-name="Pfad 143" d="M223.318,133.737c0,.027,0,.053.006.08h-2.21a.381.381,0,0,1,0-.066c.042-.022-.02-.014.026-.023a4.932,4.932,0,0,1,2.182.01" transform="translate(-155.372 -93.886)" fill="#d8d8d9"></path>
    <path id="Pfad_144" data-name="Pfad 144" d="M350.849,133.817a.354.354,0,0,1,0-.066c.042-.022-.02-.014.026-.023a4.941,4.941,0,0,1,2.182.009c0,.027,0,.053.006.08Z" transform="translate(-246.535 -93.887)" fill="#d8d8d9"></path>
    <path id="Pfad_145" data-name="Pfad 145" d="M473.692,133.8a.354.354,0,0,1,0,.066h-2.21c0-.027,0-.053.006-.08a.381.381,0,0,1,.26-.1c.553-.015,1.107-.015,1.66,0a.361.361,0,0,1,.288.11" transform="translate(-331.303 -93.933)" fill="#d8d8d9"></path>
    <path id="Pfad_146" data-name="Pfad 146" d="M384.162,133.789c0,.027.005.054.008.081h-2.139c0-.027.005-.054.008-.081a.367.367,0,0,1,.114-.067,12.172,12.172,0,0,1,1.9,0,.362.362,0,0,1,.113.068" transform="translate(-268.449 -93.939)" fill="#d8d8d9"></path>
    <path id="Pfad_147" data-name="Pfad 147" d="M400.489,133.867c0-.021,0-.041,0-.062a.336.336,0,0,1,.286-.111,11.026,11.026,0,0,1,1.446.023.368.368,0,0,1,.117.07c0,.027.005.054.008.081Z" transform="translate(-281.418 -93.937)" fill="#d8d8d9"></path>
    <path id="Pfad_148" data-name="Pfad 148" d="M412.236.17a.689.689,0,0,1,.645.644.876.876,0,0,1,.025.351q0,10.79,0,21.581a.876.876,0,0,1-.025.351,2.867,2.867,0,0,1-2.431,2.142,1.015,1.015,0,0,1-.353.022h-18.9a.952.952,0,0,1-.353-.023c-.2-.362-.414-.72-.607-1.087-.593-1.131-1.176-2.267-1.77-3.4-.664-1.264-1.336-2.524-2-3.785-.88-1.661-1.754-3.327-2.642-4.983-.67-1.248-1.336-2.5-1.987-3.754-.87-1.68-1.77-3.344-2.656-5.016L377.642.327c-.035-.1-.017-.166.1-.178a2.879,2.879,0,0,1,.32,0h33.789a1.035,1.035,0,0,1,.388.025" transform="translate(-265.354 -0.098)" fill="#1ba77e"></path>
    <path id="Pfad_149" data-name="Pfad 149" d="M0,1.1Q0,.885,0,.668A.646.646,0,0,1,.643.161,1.221,1.221,0,0,1,1.032.14q13.948,0,27.894,0a1.01,1.01,0,0,1,.388.026.79.79,0,0,1,.708.9c0,1.707,0,3.413,0,5.119q0,1.547.006,3.093c.069.066.156.043.237.043h6.717a.35.35,0,0,0,.24-.038l.006,0a.827.827,0,0,0,.031-.384q0-3.924,0-7.847a.867.867,0,0,1,.029-.385A.619.619,0,0,1,37.93.16c.982-.048,1.965-.018,2.947-.018.923,0,1.846-.032,2.769.019a.736.736,0,0,1,.646.582.944.944,0,0,1,.023.352q0,10.891,0,21.783a.9.9,0,0,1-.025.351,2.584,2.584,0,0,1-1.7,1.924,1.166,1.166,0,0,1-.414.069c-1.352,0-2.7-.015-4.057.007a.794.794,0,0,1-.883-.578.657.657,0,0,0,.025-.28q0-4.045,0-8.09a.5.5,0,0,0-.037-.31h0a.42.42,0,0,0-.276-.038q-3.325,0-6.65,0c-.091,0-.191-.031-.271.045q0,4.048,0,8.1a2.142,2.142,0,0,1-.082.625.641.641,0,0,1-.637.517q-2.793.008-5.585,0a.658.658,0,0,1-.626-.637,1.266,1.266,0,0,1-.023-.423q0-8.658,0-17.317c-.044-.13-.156-.085-.241-.085q-3.217,0-6.434,0c-.069,0-.144-.015-.2.045q0,8.67-.005,17.339a1.539,1.539,0,0,1-.037.455.716.716,0,0,1-.8.627c-1.839,0-3.679-.005-5.518.005a.717.717,0,0,1-.758-.5,1.224,1.224,0,0,0,.021-.388q0-8.58,0-17.16a.683.683,0,0,0-.037-.382h0a.682.682,0,0,0-.382-.037c-1.645,0-3.291,0-4.936,0a.727.727,0,0,1-.383-.034c-.39-.095-.481-.461-.646-.742C1.856,4.51,1.013,3.035.17,1.559A.806.806,0,0,1,0,1.1" transform="translate(0 -0.093)" fill="#86c7ac"></path>
    <path id="Pfad_150" data-name="Pfad 150" d="M389.379,112.255l-1.78.021c-1.118-1.641-2.223-3.292-3.285-4.971-.2.05-.094.208-.095.308-.008,1.421,0,2.841-.007,4.261a.647.647,0,0,1-.038.381h-1.986c-.06-.072-.039-.158-.039-.239q0-4.373,0-8.747a.616.616,0,0,1,.016-.176,9.136,9.136,0,0,1,1.734-.015l3.324,4.99.1-.01V103.1a11.22,11.22,0,0,1,2.072-.009.751.751,0,0,1,.021.281q0,4.289,0,8.579c0,.1.032.213-.038.31" transform="translate(-268.531 -72.407)" fill="#707070"></path>
    <path id="Pfad_151" data-name="Pfad 151" d="M435.849,112.283l-5.838-.006,0-9.162c.058-.056.132-.042.2-.043h5.429a.286.286,0,0,1,.2.039l.006-.005a9.792,9.792,0,0,1,0,1.781l-.006-.005a.8.8,0,0,1-.416.037c-1.049.022-2.1-.036-3.149.032l0,0a7.268,7.268,0,0,0,.016,1.633l3.12.017a8.348,8.348,0,0,1,0,1.838l.005.006a17.309,17.309,0,0,1-1.765.031c-.437.009-.874,0-1.31,0-.032.011-.081.012-.081.054a11.623,11.623,0,0,0,.028,1.9l3.546.013a8.288,8.288,0,0,1,.007,1.843Z" transform="translate(-302.165 -72.427)" fill="#707070"></path>
    <path id="Pfad_152" data-name="Pfad 152" d="M217.5,112.274l-2.208.014.006-.007a.708.708,0,0,1-.035-.382q0-3.282,0-6.564a.908.908,0,0,0-.029-.385l0,0c-.648-.066-1.3-.01-1.948-.031a1.036,1.036,0,0,1-.42-.031,11.569,11.569,0,0,1,.01-1.793.724.724,0,0,1,.282-.022H219.6a.891.891,0,0,1,.248.015,10.941,10.941,0,0,1,.025,1.793c-.648.089-1.3.013-1.947.041-.138.006-.284-.045-.414.043q0,3.283-.009,6.567c0,.249,0,.5-.005.745" transform="translate(-149.554 -72.424)" fill="#707070"></path>
    <path id="Pfad_153" data-name="Pfad 153" d="M352.964,112.261l-2.208.014.006-.007a.612.612,0,0,1-.036-.347c0-2.831,0-5.662-.008-8.493,0-.288.063-.4.367-.377.624.043,1.252-.047,1.875.048q0,4.581,0,9.163" transform="translate(-246.446 -72.411)" fill="#707070"></path>
    <path id="Pfad_154" data-name="Pfad 154" d="M412.118.072c-.154,0-.309.008-.463.008q-16.844,0-33.687.007c-.146,0-.373-.135-.444.142-.1-.109-.1-.193.067-.215a2.111,2.111,0,0,1,.285-.005q16.917,0,33.834,0c.136,0,.286-.052.408.06" transform="translate(-265.236 0)" fill="#8dd3bf"></path>
    <path id="Pfad_155" data-name="Pfad 155" d="M30.833.078c-.119,0-.237.007-.356.007H2.518C2.4.085,2.28.077,2.162.073c.113-.1.25-.057.376-.057q13.96,0,27.921,0c.125,0,.263-.045.373.062" transform="translate(-1.519 -0.005)" fill="#c2e3d5"></path>
    <path id="Pfad_156" data-name="Pfad 156" d="M148.95,24.672c0-.095-.008-.189-.009-.284q0-10.941,0-21.883c0-.106.006-.213.01-.319.1.111.059.249.059.374q0,10.869,0,21.738c0,.126.043.263-.061.374" transform="translate(-104.66 -1.536)" fill="#e1f1ea"></path>
    <path id="Pfad_157" data-name="Pfad 157" d="M159.77,2.186c0,.071.01.142.01.213q0,11.1,0,22.2c-.015.029-.034.032-.059.012,0-.154-.01-.308-.01-.462q0-10.759,0-21.518c0-.149-.054-.309.059-.445" transform="translate(-112.219 -1.536)" fill="#e1f1ea"></path>
    <path id="Pfad_158" data-name="Pfad 158" d="M422.074,84.534a.569.569,0,0,1,.07-.009h19.432a1.065,1.065,0,0,1,.106.01c-.112.1-.249.058-.375.058q-9.43,0-18.86,0c-.126,0-.263.042-.375-.059" transform="translate(-296.587 -59.395)" fill="#c6e9df"></path>
    <path id="Pfad_159" data-name="Pfad 159" d="M30.471,22.533c.122.1.071.243.071.367q0,8.612,0,17.225c0,.114.038.239-.055.34,0-.178-.014-.355-.014-.533q0-8.7,0-17.4" transform="translate(-21.412 -15.834)" fill="#a4d5c1"></path>
    <path id="Pfad_160" data-name="Pfad 160" d="M77.524,22.5q0,8.82,0,17.64c0,.047-.006.095-.009.142-.112-.136-.059-.3-.059-.445q-.006-8.668-.007-17.336c.023-.035.047-.033.072,0" transform="translate(-54.42 -15.791)" fill="#e1f1ea"></path>
    <path id="Pfad_161" data-name="Pfad 161" d="M179.141.078q-3.2,0-6.406.007-5.427,0-10.855-.005c.11-.1.248-.064.373-.064q8.258,0,16.515,0c.125,0,.263-.045.373.062" transform="translate(-113.752 -0.005)" fill="#c2e3d5"></path>
    <path id="Pfad_162" data-name="Pfad 162" d="M249.421.073c-.095,0-.189.013-.284.013H234.508c-.071,0-.142-.006-.213-.01.113-.1.249-.06.376-.06q7.187,0,14.374,0c.126,0,.263-.04.376.056" transform="translate(-164.637 -0.007)" fill="#c2e3d5"></path>
    <path id="Pfad_163" data-name="Pfad 163" d="M323.76,77.86c.112-.1.249-.058.375-.058q6.3,0,12.59,0c.123,0,.264-.051.366.072l-12.868,0c-.154,0-.309-.007-.463-.011" transform="translate(-227.503 -54.664)" fill="#a4d5c1"></path>
    <path id="Pfad_164" data-name="Pfad 164" d="M352.868,103.013c-.64,0-1.28.005-1.919-.013-.252-.007-.288.1-.287.315.007,1.584,0,3.169,0,4.753q0,2.057,0,4.114c-.127-.085-.071-.216-.072-.326,0-2.855,0-5.71-.008-8.564,0-.274.065-.377.356-.365.545.023,1.092,0,1.638.009.1,0,.218-.052.285.077" transform="translate(-246.353 -72.325)" fill="#b1b2b3"></path>
    <path id="Pfad_165" data-name="Pfad 165" d="M382.128,103.158q0,4.58,0,9.159l-.034.005-.034,0q0-4.581.005-9.163c.023-.034.045-.034.065,0" transform="translate(-268.468 -72.469)" fill="#8a8b8d"></path>
    <path id="Pfad_166" data-name="Pfad 166" d="M406.47,112.317q0-4.58,0-9.159c.021-.035.042-.037.065,0q.007,2.7.012,5.4c0,1.255,0,2.51-.007,3.765l-.035,0Z" transform="translate(-285.621 -72.469)" fill="#8a8b8d"></path>
    <path id="Pfad_167" data-name="Pfad 167" d="M125.194,53.409c.114.09.071.218.072.33q0,4.006,0,8.012c0,.114.038.239-.058.338q-.006-3.753-.011-7.506,0-.587,0-1.174" transform="translate(-87.973 -37.53)" fill="#a4d5c1"></path>
    <path id="Pfad_168" data-name="Pfad 168" d="M125.264,1.928q0,4.159,0,8.317c0,.1.03.216-.066.3q0-4.158,0-8.316c0-.1-.024-.216.066-.3" transform="translate(-87.973 -1.355)" fill="#a4d5c1"></path>
    <path id="Pfad_169" data-name="Pfad 169" d="M184.213,51.794c.086-.122.215-.076.326-.077q3.853,0,7.705,0c.1,0,.215-.03.3.057l-6.27.013c-.665,0-1.33.006-1.995.009a.04.04,0,0,1-.07,0" transform="translate(-129.445 -36.336)" fill="#a4d5c1"></path>
    <path id="Pfad_170" data-name="Pfad 170" d="M255.663,65.9q0-2.291-.011-4.582c0-.142.01-.258.2-.257.985,0,1.969,0,2.954.007.037,0,.075.045.112.07-.959,0-1.919,0-2.877-.01-.248,0-.325.074-.323.322.01,1.359.006,2.718,0,4.077,0,.125.043.262-.059.373" transform="translate(-179.644 -42.908)" fill="#e1f1ea"></path>
    <path id="Pfad_171" data-name="Pfad 171" d="M220.88,109.4c.119.12.061.27.061.4q.008,3.463.006,6.927c-.108-.061-.073-.166-.072-.255q0-3.538.005-7.077" transform="translate(-155.202 -76.874)" fill="#b1b2b3"></path>
    <path id="Pfad_172" data-name="Pfad 172" d="M108.2,30.887c-.089.118-.218.071-.329.072q-3.27,0-6.539,0c-.11,0-.241.051-.325-.077l7.193.005" transform="translate(-70.973 -21.7)" fill="#c2e3d5"></path>
    <path id="Pfad_173" data-name="Pfad 173" d="M100.992,53.232c.084-.125.214-.078.326-.078q3.27,0,6.54,0c.113,0,.241-.042.331.071l-7.2.007" transform="translate(-70.966 -37.345)" fill="#a4d5c1"></path>
    <path id="Pfad_174" data-name="Pfad 174" d="M219.9,103.017h-6.973c-.023-.016-.031-.033-.024-.049s.015-.025.023-.025q3.375,0,6.75,0c.1,0,.218-.046.288.076-.02.029-.042.029-.065,0" transform="translate(-149.604 -72.327)" fill="#b1b2b3"></path>
    <path id="Pfad_175" data-name="Pfad 175" d="M61.379,22.348H54.47c.1-.133.239-.077.361-.078q3.092-.005,6.185,0c.122,0,.264-.054.362.076" transform="translate(-38.276 -15.642)" fill="#a4d5c1"></path>
    <path id="Pfad_176" data-name="Pfad 176" d="M342.286.083l-6.07.006c.086-.091.2-.063.3-.063q2.732,0,5.465,0c.1,0,.215-.027.3.057" transform="translate(-236.256 -0.015)" fill="#c2e3d5"></path>
    <path id="Pfad_177" data-name="Pfad 177" d="M222.086,7.99q0-3.027,0-6.054c.1.095.067.22.068.334q0,2.693,0,5.386c0,.114.033.239-.069.334" transform="translate(-156.058 -1.36)" fill="#a4d5c1"></path>
    <path id="Pfad_178" data-name="Pfad 178" d="M435.854,103.016l-5.834,0c.054-.118.162-.078.249-.078q2.666,0,5.332,0c.088,0,.194-.037.253.074" transform="translate(-302.171 -72.332)" fill="#b1b2b3"></path>
    <path id="Pfad_179" data-name="Pfad 179" d="M11.3,22.266q2.649,0,5.3,0c.135,0,.287-.057.4.07q-2.63,0-5.259,0c-.148,0-.31.051-.441-.07" transform="translate(-7.943 -15.64)" fill="#a4d5c1"></path>
    <path id="Pfad_180" data-name="Pfad 180" d="M133.294.084h-5.716c.089-.083.2-.057.3-.057q2.554,0,5.108,0c.1,0,.215-.025.3.058" transform="translate(-89.648 -0.015)" fill="#c2e3d5"></path>
    <path id="Pfad_181" data-name="Pfad 181" d="M261.745,103.014l-3.925.012c.038-.08.114-.073.183-.073q1.792,0,3.584,0a.509.509,0,0,1,.158.059" transform="translate(-181.168 -72.344)" fill="#b1b2b3"></path>
    <path id="Pfad_182" data-name="Pfad 182" d="M475.425,103.009l-3.919.018c.042-.1.135-.078.213-.078q1.757,0,3.513,0c.07,0,.144,0,.194.061" transform="translate(-331.323 -72.339)" fill="#b1b2b3"></path>
    <path id="Pfad_183" data-name="Pfad 183" d="M214.921,40.042V36.413a.278.278,0,0,1,.061.232q0,1.582,0,3.165a.278.278,0,0,1-.061.232" transform="translate(-151.023 -25.587)" fill="#e1f1ea"></path>
    <path id="Pfad_184" data-name="Pfad 184" d="M437.651,109.217c.107-.114.246-.061.369-.062,1.065-.006,2.131-.006,3.2-.007-.059.111-.165.074-.253.074q-1.656,0-3.311-.005" transform="translate(-307.533 -76.694)" fill="#b1b2b3"></path>
    <path id="Pfad_185" data-name="Pfad 185" d="M437.625,121.159l3.131-.011c-.1.116-.243.066-.367.067-.921.006-1.841.007-2.761.009-.026-.014-.035-.028-.027-.043s.016-.023.025-.023" transform="translate(-307.495 -85.13)" fill="#d8d8d9"></path>
    <path id="Pfad_186" data-name="Pfad 186" d="M184.188,51.989a.2.2,0,0,1,.07,0q0,1.45,0,2.9c-.111-.058-.073-.164-.073-.251,0-.883,0-1.767,0-2.65" transform="translate(-129.42 -36.531)" fill="#e1f1ea"></path>
    <path id="Pfad_187" data-name="Pfad 187" d="M184.268,26.9c-.083-.036-.074-.111-.074-.18q0-1.269,0-2.539c0-.069-.008-.144.074-.18v2.9" transform="translate(-129.431 -16.862)" fill="#e1f1ea"></path>
    <path id="Pfad_188" data-name="Pfad 188" d="M228.585,109.187c.078-.138.211-.075.318-.076.673-.009,1.346-.01,2.018-.012.023-.026.045-.025.065,0-.094.137-.237.073-.356.074-.682.009-1.364.009-2.045.011" transform="translate(-160.624 -76.649)" fill="#b1b2b3"></path>
    <path id="Pfad_189" data-name="Pfad 189" d="M212.929,109.147c.673,0,1.345,0,2.018.01.112,0,.238-.045.332.062l-2.351,0c-.023-.017-.031-.033-.023-.05s.016-.024.024-.024" transform="translate(-149.604 -76.697)" fill="#b1b2b3"></path>
    <path id="Pfad_190" data-name="Pfad 190" d="M314,103.04l-2.188,0a.1.1,0,0,1,.1-.08c.661,0,1.322,0,1.982,0,.035,0,.07.047.106.073" transform="translate(-219.109 -72.352)" fill="#b1b2b3"></path>
    <path id="Pfad_191" data-name="Pfad 191" d="M401.683,103.026h-.033l-.033,0h-2.052c.041-.1.134-.078.211-.078q.846,0,1.693,0c.079,0,.169-.019.214.078" transform="translate(-280.77 -72.339)" fill="#b1b2b3"></path>
    <path id="Pfad_192" data-name="Pfad 192" d="M437.494,121.185a.228.228,0,0,0,0,.065q0,.953,0,1.906c-.117-.053-.077-.159-.078-.246q-.006-.739,0-1.477c0-.088-.033-.193.077-.249" transform="translate(-307.365 -85.156)" fill="#b1b2b3"></path>
    <path id="Pfad_193" data-name="Pfad 193" d="M212.775,104.805c0,.025,0,.049,0,.074-.133-.1-.082-.239-.073-.357a5.815,5.815,0,0,1,.073-1.554c0,.025,0,.049,0,.074v1.763" transform="translate(-149.45 -72.355)" fill="#d9d9da"></path>
    <path id="Pfad_194" data-name="Pfad 194" d="M448.193,116.785q0-.919,0-1.838c.129.065.083.187.076.281a6.055,6.055,0,0,1-.072,1.556" transform="translate(-314.938 -80.772)" fill="#b1b2b3"></path>
    <path id="Pfad_195" data-name="Pfad 195" d="M449.629,129.7q0-.922-.007-1.844c.137.094.085.238.077.356a5.6,5.6,0,0,1-.071,1.488" transform="translate(-315.945 -89.845)" fill="#d8d8d9"></path>
    <path id="Pfad_196" data-name="Pfad 196" d="M449.663,104.968v-1.781a4.686,4.686,0,0,1,0,1.781" transform="translate(-315.974 -72.509)" fill="#d9d9da"></path>
    <path id="Pfad_197" data-name="Pfad 197" d="M236.51,104.977h-.032l-.032,0v-1.76a.278.278,0,0,1,.065,0v1.767" transform="translate(-166.148 -72.525)" fill="#8a8b8d"></path>
    <path id="Pfad_198" data-name="Pfad 198" d="M382.139,102.994l-.033,0h-.033c.119-.147.285-.08.424-.073a5.256,5.256,0,0,1,1.351.057l-1.709.018" transform="translate(-268.48 -72.305)" fill="#b2b3b4"></path>
    <path id="Pfad_199" data-name="Pfad 199" d="M437.46,111.033c-.16-.142-.079-.331-.073-.492a3.477,3.477,0,0,1,.057-1.14q.008.816.016,1.633" transform="translate(-307.329 -76.874)" fill="#b1b2b3"></path>
    <path id="Pfad_200" data-name="Pfad 200" d="M309.162,26.5q0-.427,0-.853a1.27,1.27,0,0,1,0,.853" transform="translate(-217.244 -18.019)" fill="#e1f1ea"></path>
    <path id="Pfad_201" data-name="Pfad 201" d="M159.766,77.585l.059-.012c-.016.191.062.392-.059.572q0-.28,0-.559" transform="translate(-112.266 -54.51)" fill="#a9d7c4"></path>
    <path id="Pfad_202" data-name="Pfad 202" d="M282.774,28.027a.456.456,0,0,1,0,.5q0-.252,0-.5" transform="translate(-198.703 -19.694)" fill="#bbe0d0"></path>
    <path id="Pfad_203" data-name="Pfad 203" d="M308.944,23.427c-.109-.132-.051-.287-.059-.433.113.132.059.286.059.433" transform="translate(-217.045 -16.158)" fill="#b2dbca"></path>
    <path id="Pfad_204" data-name="Pfad 204" d="M388.93,122.32c0-1.571,0-3.143.011-4.714,0-.079-.116-.271.128-.237-.119.106-.059.245-.06.367-.007,1.528-.008,3.057-.011,4.585l-.034,0Z" transform="translate(-273.286 -82.472)" fill="#8a8b8d"></path>
    <path id="Pfad_205" data-name="Pfad 205" d="M478.883,125.857c0-1.038,0-2.076.006-3.113,0-.12-.064-.263.074-.357.021.013.028.027.022.042s-.012.023-.019.023c0,1.015,0,2.031-.012,3.046,0,.12.062.262-.071.36" transform="translate(-336.5 -85.999)" fill="#b1b2b3"></path>
    <path id="Pfad_206" data-name="Pfad 206" d="M479.175,122.392a.268.268,0,0,1,0-.065,2.927,2.927,0,0,1,1.07.052l-1.067.013" transform="translate(-336.709 -85.941)" fill="#d8d8d9"></path>
    <path id="Pfad_207" data-name="Pfad 207" d="M265.223,125.795c0-1.036.016-2.073-.006-3.108-.007-.324.1-.43.4-.377.245.043.508-.092.739.075-.249,0-.5.012-.745-.008s-.321.083-.318.325c.012.909.007,1.82,0,2.729,0,.123.053.263-.071.365" transform="translate(-186.365 -85.937)" fill="#d8d8d9"></path>
    <path id="Pfad_208" data-name="Pfad 208" d="M230.272,24.831q-1.936-3.656-3.877-7.308-1.185-2.232-2.374-4.463-2.391-4.514-4.778-9.031c-.684-1.29-1.374-2.576-2.062-3.864a.41.41,0,0,0-.139-.022h-5.757a.36.36,0,0,0-.173.028.652.652,0,0,0-.565.369c-.274.494-.551.985-.816,1.484q-1.367,2.573-2.725,5.15c-.806,1.532-1.6,3.069-2.408,4.6-.855,1.624-1.719,3.244-2.578,4.867-.3.562-.583,1.13-.887,1.688-.2.364-.239.362-.529.076-.177-.175-.347-.359-.534-.523-1.07-.939-2.015-2-3.092-3.017.392-.117.736-.206,1.072-.322a8.113,8.113,0,0,0,3.725-2.527,6.174,6.174,0,0,0,1.294-3.443,2.973,2.973,0,0,0,0-.853q-.008-.177-.017-.354c-.073-.137.017-.3-.059-.433C202.579,2.77,199.957.4,195.936.165a.962.962,0,0,0-.318-.02H181.127a.8.8,0,0,0-.317.024c-.5.11-.636.269-.636.764q0,2.721,0,5.442c0,.63.218.848.849.848q6.307,0,12.615,0a1.448,1.448,0,0,1,1.237.478,3.753,3.753,0,0,1,.349.727.908.908,0,0,1,0,.5.374.374,0,0,0-.055.09,1.328,1.328,0,0,1-1.474,1.117H181.186c-.1,0-.191-.007-.285,0-.527.05-.727.271-.727.8,0,2.371-.009,4.743.009,7.114,0,.356-.1.423-.437.421-2.186-.015-4.372-.007-6.557-.008q-3.6,0-7.2-.009a.229.229,0,0,1-.04-.166c0-.907-.01-1.814.007-2.72.1-.109.223-.056.334-.056q3.824-.005,7.648,0a.839.839,0,0,1,.317.023.837.837,0,0,0,.795-.984q.061-1.815,0-3.629c-.128-.6-.351-.782-.977-.783l-8.084-.01a16.659,16.659,0,0,1-.036-1.995,3.054,3.054,0,0,1,.036-.9c.142,0,.284-.009.426-.009,3.307,0,6.615-.005,9.922.006a.8.8,0,0,0,.842-.5.414.414,0,0,0,.032-.242q0-2.785,0-5.57a.424.424,0,0,0-.031-.242.724.724,0,0,0-.64-.5.868.868,0,0,0-.352-.026q-8.279,0-16.558,0a.8.8,0,0,0-.351.028.587.587,0,0,0-.577.575,1.271,1.271,0,0,0-.023.423q0,10.959,0,21.919a3.257,3.257,0,0,1-.026.644,5.388,5.388,0,0,1-.472,1.494h.255q13.3,0,26.609,0a1.362,1.362,0,0,0,.578-.134,2.52,2.52,0,0,0,1.547-2,1.094,1.094,0,0,0,.023-.387c0-1.361.008-2.722,0-4.083,0-.26.058-.347.332-.341.794.019,1.589,0,2.383.01a1.074,1.074,0,0,1,.523.039c.236.264.468.531.708.791.585.634,1.17,1.268,1.761,1.9,1.233,1.309,2.472,2.611,3.7,3.922a.9.9,0,0,0,.722.293c2.815-.008,5.63-.012,8.444,0a.932.932,0,0,0,.927-.566,13.727,13.727,0,0,1,.716-1.374.668.668,0,0,1,.281-.025q6.37,0,12.739,0c.1,0,.214-.031.31.039.216.445.455.881.64,1.338a.88.88,0,0,0,.957.588c2.565-.018,5.129-.009,7.694-.009.443,0,.45,0,.242-.4M217.14,16.651h-6.2a.352.352,0,0,1-.241-.037c.535-.96,1-1.954,1.488-2.94.6-1.223,1.206-2.443,1.853-3.751l3.343,6.692a.356.356,0,0,1-.241.037" transform="translate(-111.152 -0.098)" fill="#86c7ac"></path>
    <path id="Pfad_209" data-name="Pfad 209" d="M334.821,55.548H341.5c-.071.122-.19.073-.288.073q-3.054,0-6.108,0c-.1,0-.217.049-.288-.073" transform="translate(-235.275 -39.033)" fill="#e1f1ea"></path>
    <path id="Pfad_210" data-name="Pfad 210" d="M478.509,111.561c-.47-.975-.924-1.956-1.4-2.929-.084-.172-.053-.245.1-.321a1.913,1.913,0,0,0,.76-.66,2.945,2.945,0,0,0,.385-2.5,2.373,2.373,0,0,0-1.084-1.519,4.546,4.546,0,0,0-1.857-.537c-1.286-.055-2.573-.015-3.859-.019-.02,0-.04.023-.06.036l0,9.162,2.208.014-.006-.007a.605.605,0,0,0,.036-.347c0-.783,0-1.565,0-2.348a2.253,2.253,0,0,1,.035-.737,4.836,4.836,0,0,1,1.075.014c.211.461.422.92.632,1.382q.465,1.023.927,2.048c.7,0,1.393,0,2.09-.012.108,0,.237.062.325-.062a2.665,2.665,0,0,1-.314-.653m-2.632-4.842a1.285,1.285,0,0,1-.68.222c-.472,0-.944,0-1.416-.007a.122.122,0,0,1-.078-.14,10.575,10.575,0,0,1,.062-1.848l0,0h0a2.189,2.189,0,0,1,1.151,0,5.872,5.872,0,0,1,.585.085c.319.078.63.237.676.578.053.394.127.843-.3,1.116" transform="translate(-331.316 -72.42)" fill="#707070"></path>
    <path id="Pfad_211" data-name="Pfad 211" d="M265.239,134.06h0Z" transform="translate(-186.38 -94.202)" fill="#646567"></path>
    <path id="Pfad_212" data-name="Pfad 212" d="M263.389,108.653c-.1-.2-.037-.246.119-.331a2.285,2.285,0,0,0,.93-.966,2.989,2.989,0,0,0,.287-1.642,2.6,2.6,0,0,0-.364-1.293,3.194,3.194,0,0,0-2.635-1.331c-1.228-.056-2.457-.01-3.685-.024a.355.355,0,0,0-.24.036l-.007-.006q0,4.587.008,9.175l2.205.006a.611.611,0,0,0,.035-.345c0-.934,0-1.869,0-2.8,0-.129-.059-.312.18-.3a3.952,3.952,0,0,1,.914.04c.17.367.337.735.51,1.1.366.77.645,1.58,1.065,2.325l2.419-.025c-.579-1.206-1.15-2.417-1.746-3.615m-1.881-1.718c-.47.04-.948,0-1.421,0-.126-.05-.073-.161-.073-.243,0-.577.005-1.154.01-1.731.016-.025.032-.025.047-.014a2.174,2.174,0,0,1,1.158,0c.42.031.9.023,1.123.432a.972.972,0,0,1-.843,1.561" transform="translate(-181.151 -72.421)" fill="#707070"></path>
    <path id="Pfad_213" data-name="Pfad 213" d="M307.9,106.846q-.659-1.881-1.324-3.76a5.406,5.406,0,0,0-1.218-.037,2.975,2.975,0,0,0-.97.042c-.148.422-.3.845-.445,1.267q-1.054,3.031-2.107,6.063a13.64,13.64,0,0,0-.591,1.835l2.343,0c.144-.44.31-.874.42-1.322.049-.2.132-.242.308-.241.793,0,1.586.007,2.38,0,.17,0,.23.054.284.215a10.8,10.8,0,0,0,.456,1.368l2.351-.022q-.943-2.7-1.886-5.4m-1.77,2c-.483,0-.966,0-1.487,0a20.076,20.076,0,0,1,.917-2.487c.239.767.476,1.534.718,2.3.047.148-.009.189-.148.188" transform="translate(-211.68 -72.398)" fill="#707070"></path>
  </g>
</svg>
